<?xml version="1.0" encoding="UTF-8" standalone="no"?>
<!DOCTYPE svg PUBLIC "-//W3C//DTD SVG 1.1//EN"
 "http://www.w3.org/Graphics/SVG/1.1/DTD/svg11.dtd">
<!-- Generated by graphviz version 8.0.5 (20230430.1635)
 -->
<!-- Pages: 1 -->
<svg width="2799pt" height="1052pt"
 viewBox="0.00 0.00 2799.26 1052.00" xmlns="http://www.w3.org/2000/svg" xmlns:xlink="http://www.w3.org/1999/xlink">
<g id="graph0" class="graph" transform="scale(1 1) rotate(0) translate(4 1048)">
<polygon fill="white" stroke="none" points="-4,4 -4,-1048 2795.26,-1048 2795.26,4 -4,4"/>
<!-- the -->
<g id="node1" class="node">
<title>the</title>
<ellipse fill="none" stroke="black" cx="27" cy="-1026" rx="27" ry="18"/>
<text text-anchor="middle" x="27" y="-1020.58" font-family="Times New Roman,serif" font-size="14.00">the</text>
</g>
<!-- the&#45;&gt;the -->
<g id="edge5" class="edge">
<title>the&#45;&gt;the</title>
<path fill="none" stroke="black" d="M46.9,-1038.43C59.69,-1041.68 72,-1037.53 72,-1026 72,-1017.89 65.91,-1013.44 57.85,-1012.63"/>
<polygon fill="black" stroke="black" points="57.56,-1009.23 47.9,-1013.57 58.16,-1016.2 57.56,-1009.23"/>
</g>
<!-- this -->
<g id="node2" class="node">
<title>this</title>
<ellipse fill="none" stroke="black" cx="329" cy="-954" rx="27" ry="18"/>
<text text-anchor="middle" x="329" y="-948.58" font-family="Times New Roman,serif" font-size="14.00">this</text>
</g>
<!-- the&#45;&gt;this -->
<g id="edge1" class="edge">
<title>the&#45;&gt;this</title>
<path fill="none" stroke="black" d="M52.62,-1019.96C97.81,-1011.85 193.6,-994.49 273,-972 279.84,-970.06 287.12,-967.62 294.15,-965.2"/>
<polygon fill="black" stroke="black" points="294.89,-968.3 303.19,-961.73 292.6,-961.69 294.89,-968.3"/>
</g>
<!-- you -->
<g id="node3" class="node">
<title>you</title>
<ellipse fill="none" stroke="black" cx="293" cy="-18" rx="27" ry="18"/>
<text text-anchor="middle" x="293" y="-12.57" font-family="Times New Roman,serif" font-size="14.00">you</text>
</g>
<!-- the&#45;&gt;you -->
<g id="edge2" class="edge">
<title>the&#45;&gt;you</title>
<path fill="none" stroke="black" d="M54.29,-1024.52C186.89,-1022.15 775.7,-1010.23 1257,-972 1533.1,-950.07 1603.47,-949.36 1876,-900 2007.1,-876.26 2039.95,-868.13 2167,-828 2420.58,-747.9 2565.7,-824.94 2725,-612 2875.79,-410.44 2643.62,-227.09 2406,-144 2267.57,-95.6 2229.51,-90.24 2084,-72 1727.26,-27.28 558.59,-20.13 331.41,-19.15"/>
<polygon fill="black" stroke="black" points="331.44,-15.64 321.43,-19.1 331.41,-22.64 331.44,-15.64"/>
</g>
<!-- in -->
<g id="node4" class="node">
<title>in</title>
<ellipse fill="none" stroke="black" cx="1271" cy="-90" rx="27" ry="18"/>
<text text-anchor="middle" x="1271" y="-84.58" font-family="Times New Roman,serif" font-size="14.00">in</text>
</g>
<!-- the&#45;&gt;in -->
<g id="edge3" class="edge">
<title>the&#45;&gt;in</title>
<path fill="none" stroke="black" d="M54.26,-1024.84C207.07,-1023.8 956.95,-1016.59 1184,-972 1230.76,-962.82 1238.51,-946.46 1285,-936 1441.01,-900.9 1484.33,-919.89 1643,-900 1856.61,-873.22 1947.82,-954.51 2122,-828 2324.84,-680.67 2442.2,-483.29 2285,-288 2209.85,-194.64 2171.69,-178.8 2057,-144 1984.67,-122.06 1456.4,-98.95 1309.01,-92.66"/>
<polygon fill="black" stroke="black" points="1309.42,-89.13 1299.28,-92.2 1309.12,-96.13 1309.42,-89.13"/>
</g>
<!-- to -->
<g id="node5" class="node">
<title>to</title>
<ellipse fill="none" stroke="black" cx="547" cy="-162" rx="27" ry="18"/>
<text text-anchor="middle" x="547" y="-156.57" font-family="Times New Roman,serif" font-size="14.00">to</text>
</g>
<!-- the&#45;&gt;to -->
<g id="edge4" class="edge">
<title>the&#45;&gt;to</title>
<path fill="none" stroke="black" d="M24.84,-1007.82C27.62,-989.55 36.68,-960.05 48,-936 208.28,-595.41 274.14,-521.54 494,-216 502.19,-204.62 512.1,-192.56 521.3,-182.82"/>
<polygon fill="black" stroke="black" points="523.26,-185.81 527.82,-176.25 518.29,-180.88 523.26,-185.81"/>
</g>
<!-- your -->
<g id="node6" class="node">
<title>your</title>
<ellipse fill="none" stroke="black" cx="627" cy="-234" rx="27.61" ry="18"/>
<text text-anchor="middle" x="627" y="-228.57" font-family="Times New Roman,serif" font-size="14.00">your</text>
</g>
<!-- the&#45;&gt;your -->
<g id="edge6" class="edge">
<title>the&#45;&gt;your</title>
<path fill="none" stroke="black" d="M30.5,-1007.9C39.37,-989.45 58.52,-959.55 78,-936 237.26,-743.49 333.65,-744.63 477,-540 511.24,-491.12 580.82,-325.54 611.97,-261.03"/>
<polygon fill="black" stroke="black" points="615.52,-262.75 616.8,-252.23 609.24,-259.65 615.52,-262.75"/>
</g>
<!-- that -->
<g id="node7" class="node">
<title>that</title>
<ellipse fill="none" stroke="black" cx="1183" cy="-306" rx="27" ry="18"/>
<text text-anchor="middle" x="1183" y="-300.57" font-family="Times New Roman,serif" font-size="14.00">that</text>
</g>
<!-- the&#45;&gt;that -->
<g id="edge7" class="edge">
<title>the&#45;&gt;that</title>
<path fill="none" stroke="black" d="M41.55,-1010.4C124.68,-934.68 538.08,-587.01 683,-504 846.23,-410.5 1062.54,-340.52 1147.14,-316.27"/>
<polygon fill="black" stroke="black" points="1148.05,-319.36 1156.72,-313.28 1146.14,-312.63 1148.05,-319.36"/>
</g>
<!-- on -->
<g id="node8" class="node">
<title>on</title>
<ellipse fill="none" stroke="black" cx="1689" cy="-378" rx="27" ry="18"/>
<text text-anchor="middle" x="1689" y="-372.57" font-family="Times New Roman,serif" font-size="14.00">on</text>
</g>
<!-- the&#45;&gt;on -->
<g id="edge8" class="edge">
<title>the&#45;&gt;on</title>
<path fill="none" stroke="black" d="M54.14,-1024.46C199.69,-1021.57 887.55,-1006.76 1098,-972 1155.46,-962.51 1166.93,-947.61 1224,-936 1351.7,-910.02 1386.8,-923.39 1515,-900 1723.25,-862.01 1792.83,-873.37 1969,-756 2095.92,-671.44 2193.77,-535.76 2082,-432 2030.6,-384.28 1815.65,-378.74 1727.15,-378.62"/>
<polygon fill="black" stroke="black" points="1727.26,-375.13 1717.27,-378.64 1727.27,-382.13 1727.26,-375.13"/>
</g>
<!-- and -->
<g id="node9" class="node">
<title>and</title>
<ellipse fill="none" stroke="black" cx="2037" cy="-450" rx="27" ry="18"/>
<text text-anchor="middle" x="2037" y="-444.57" font-family="Times New Roman,serif" font-size="14.00">and</text>
</g>
<!-- the&#45;&gt;and -->
<g id="edge9" class="edge">
<title>the&#45;&gt;and</title>
<path fill="none" stroke="black" d="M54.21,-1025.13C169,-1025.28 623.46,-1022.27 993,-972 1066.94,-961.94 1083.95,-951.24 1157,-936 1496.38,-865.19 1604.48,-908.14 1916,-756 1995.1,-717.37 2017.45,-692.97 2052,-612 2071.13,-567.17 2087.29,-549.93 2071,-504 2067.28,-493.5 2060.49,-483.57 2053.84,-475.2"/>
<polygon fill="black" stroke="black" points="2055.91,-473.22 2046.82,-467.78 2050.54,-477.7 2055.91,-473.22"/>
</g>
<!-- a -->
<g id="node10" class="node">
<title>a</title>
<ellipse fill="none" stroke="black" cx="1203" cy="-522" rx="27" ry="18"/>
<text text-anchor="middle" x="1203" y="-516.58" font-family="Times New Roman,serif" font-size="14.00">a</text>
</g>
<!-- the&#45;&gt;a -->
<g id="edge10" class="edge">
<title>the&#45;&gt;a</title>
<path fill="none" stroke="black" d="M46.01,-1012.71C66.08,-1002.31 97.88,-986.78 125,-972 316.8,-867.44 347.26,-808.47 547,-720 773.1,-619.86 1065.07,-551.16 1166.52,-529.94"/>
<polygon fill="black" stroke="black" points="1167.03,-533.2 1176.11,-527.75 1165.61,-526.35 1167.03,-533.2"/>
</g>
<!-- of -->
<g id="node11" class="node">
<title>of</title>
<ellipse fill="none" stroke="black" cx="1604" cy="-666" rx="27" ry="18"/>
<text text-anchor="middle" x="1604" y="-660.58" font-family="Times New Roman,serif" font-size="14.00">of</text>
</g>
<!-- the&#45;&gt;of -->
<g id="edge11" class="edge">
<title>the&#45;&gt;of</title>
<path fill="none" stroke="black" d="M54.17,-1024.26C180.56,-1020.46 721.63,-999.34 1152,-900 1324.34,-860.22 1388.47,-870.83 1523,-756 1545.84,-736.51 1566.79,-709.03 1581.99,-689.77"/>
<polygon fill="black" stroke="black" points="1585.24,-692.31 1588.76,-682.31 1579.78,-687.93 1585.24,-692.31"/>
</g>
<!-- is -->
<g id="node12" class="node">
<title>is</title>
<ellipse fill="none" stroke="black" cx="867" cy="-738" rx="27" ry="18"/>
<text text-anchor="middle" x="867" y="-732.58" font-family="Times New Roman,serif" font-size="14.00">is</text>
</g>
<!-- the&#45;&gt;is -->
<g id="edge12" class="edge">
<title>the&#45;&gt;is</title>
<path fill="none" stroke="black" d="M51.54,-1017.77C86.36,-1008.66 151.15,-991.77 205,-972 241.22,-958.7 247.79,-949.34 284,-936 338.65,-915.87 354.56,-917.86 410,-900 569.66,-848.57 757.74,-777.49 833.32,-750.25"/>
<polygon fill="black" stroke="black" points="833.98,-753.37 842.22,-746.7 831.62,-746.78 833.98,-753.37"/>
</g>
<!-- this&#45;&gt;the -->
<g id="edge190" class="edge">
<title>this&#45;&gt;the</title>
<path fill="none" stroke="black" d="M308.69,-966.26C303.01,-968.32 296.84,-970.34 291,-972 211.56,-994.5 115.71,-1011.87 64.01,-1019.98"/>
<polygon fill="black" stroke="black" points="63.72,-1016.63 54.37,-1021.61 64.78,-1023.55 63.72,-1016.63"/>
</g>
<!-- this&#45;&gt;this -->
<g id="edge187" class="edge">
<title>this&#45;&gt;this</title>
<path fill="none" stroke="black" d="M348.9,-966.43C361.69,-969.68 374,-965.53 374,-954 374,-945.89 367.91,-941.44 359.85,-940.63"/>
<polygon fill="black" stroke="black" points="359.56,-937.23 349.9,-941.57 360.16,-944.2 359.56,-937.23"/>
</g>
<!-- this&#45;&gt;you -->
<g id="edge189" class="edge">
<title>this&#45;&gt;you</title>
<path fill="none" stroke="black" d="M326.36,-935.99C315.86,-823.69 291.22,-188.91 291.57,-47.1"/>
<polygon fill="black" stroke="black" points="295.08,-47.36 291.66,-37.33 288.08,-47.3 295.08,-47.36"/>
</g>
<!-- this&#45;&gt;in -->
<g id="edge179" class="edge">
<title>this&#45;&gt;in</title>
<path fill="none" stroke="black" d="M356.15,-952.95C473.5,-952.41 947.12,-947.21 1333,-900 1500.16,-879.55 1541.04,-866.42 1705,-828 1915.16,-778.75 2062.58,-813.49 2140,-612 2224.28,-392.65 2117.5,-216.55 1894,-144 1838.02,-125.83 1434.74,-101.04 1308.54,-93.36"/>
<polygon fill="black" stroke="black" points="1309.08,-89.83 1298.89,-92.72 1308.66,-96.82 1309.08,-89.83"/>
</g>
<!-- this&#45;&gt;to -->
<g id="edge178" class="edge">
<title>this&#45;&gt;to</title>
<path fill="none" stroke="black" d="M329.05,-935.67C337.1,-853.27 402.6,-493.58 510,-216 513.92,-205.88 519.29,-195.21 524.89,-186.12"/>
<polygon fill="black" stroke="black" points="528.35,-188.23 531,-177.97 522.53,-184.34 528.35,-188.23"/>
</g>
<!-- this&#45;&gt;your -->
<g id="edge183" class="edge">
<title>this&#45;&gt;your</title>
<path fill="none" stroke="black" d="M336.73,-936.45C365.46,-888.51 463.12,-744.5 518,-612 570.08,-486.26 602.02,-325.57 617.7,-262.32"/>
<polygon fill="black" stroke="black" points="621.34,-263.23 620.44,-252.68 614.56,-261.49 621.34,-263.23"/>
</g>
<!-- this&#45;&gt;that -->
<g id="edge184" class="edge">
<title>this&#45;&gt;that</title>
<path fill="none" stroke="black" d="M353.58,-945.8C383.32,-937.63 433.7,-922.45 473,-900 666,-789.73 684.26,-719.52 854,-576 965.53,-481.7 1099.45,-369.44 1156.02,-325.72"/>
<polygon fill="black" stroke="black" points="1157.59,-328.16 1163.41,-319.3 1153.34,-322.59 1157.59,-328.16"/>
</g>
<!-- this&#45;&gt;on -->
<g id="edge186" class="edge">
<title>this&#45;&gt;on</title>
<path fill="none" stroke="black" d="M355.8,-950.21C431.6,-942.75 645.33,-921.49 713,-900 745.97,-889.53 751.31,-879.95 782,-864 905.46,-799.82 933.26,-777.43 1060,-720 1099.99,-701.88 1111.39,-700.69 1152,-684 1226.76,-653.27 1244.9,-644.29 1319,-612 1464.58,-548.56 1536.55,-583.06 1646,-468 1662.28,-450.89 1670.97,-425.18 1677.04,-405.79"/>
<polygon fill="black" stroke="black" points="1680.62,-407.08 1680.26,-396.49 1673.94,-404.99 1680.62,-407.08"/>
</g>
<!-- this&#45;&gt;and -->
<g id="edge180" class="edge">
<title>this&#45;&gt;and</title>
<path fill="none" stroke="black" d="M356.21,-952.57C460.21,-950.71 841.03,-941.46 1152,-900 1469,-857.73 1561.53,-878.36 1857,-756 1946.31,-719.01 1973.56,-696.78 2020,-612 2043.77,-568.61 2055.47,-552.75 2047,-504 2045.53,-495.53 2042.82,-486.61 2040.27,-478.57"/>
<polygon fill="black" stroke="black" points="2043.36,-477.74 2037.02,-469.25 2036.69,-479.84 2043.36,-477.74"/>
</g>
<!-- this&#45;&gt;a -->
<g id="edge182" class="edge">
<title>this&#45;&gt;a</title>
<path fill="none" stroke="black" d="M355.41,-949.47C422.53,-941.11 597.2,-919.33 653,-900 715.04,-878.51 725.47,-861.4 782,-828 801.51,-816.47 934.28,-729.18 955,-720 1008.64,-696.23 1029.77,-710.72 1082,-684 1127.92,-660.52 1145.32,-655.51 1173,-612 1184.78,-593.48 1189.97,-568.99 1193.66,-550.39"/>
<polygon fill="black" stroke="black" points="1197.27,-551.17 1195.81,-540.68 1190.41,-549.8 1197.27,-551.17"/>
</g>
<!-- this&#45;&gt;of -->
<g id="edge188" class="edge">
<title>this&#45;&gt;of</title>
<path fill="none" stroke="black" d="M356.34,-952.35C450.3,-949.91 767.17,-939.35 1026,-900 1166.69,-878.61 1205.65,-880.31 1338,-828 1431.87,-790.89 1529.28,-719.07 1576.06,-685.34"/>
<polygon fill="black" stroke="black" points="1577.64,-687.79 1583.73,-679.12 1573.56,-682.11 1577.64,-687.79"/>
</g>
<!-- this&#45;&gt;is -->
<g id="edge185" class="edge">
<title>this&#45;&gt;is</title>
<path fill="none" stroke="black" d="M355.67,-950.35C404.14,-945.3 508.47,-931.81 591,-900 688.07,-862.59 789.87,-790.61 838.4,-757.05"/>
<polygon fill="black" stroke="black" points="840.13,-759.42 846.38,-750.87 836.16,-753.66 840.13,-759.42"/>
</g>
<!-- are -->
<g id="node13" class="node">
<title>are</title>
<ellipse fill="none" stroke="black" cx="1293" cy="-810" rx="27" ry="18"/>
<text text-anchor="middle" x="1293" y="-804.58" font-family="Times New Roman,serif" font-size="14.00">are</text>
</g>
<!-- this&#45;&gt;are -->
<g id="edge191" class="edge">
<title>this&#45;&gt;are</title>
<path fill="none" stroke="black" d="M356.23,-951.88C440.5,-948.34 703.07,-935.45 918,-900 1044.21,-879.18 1191.24,-838.22 1257.59,-820.05"/>
<polygon fill="black" stroke="black" points="1258.18,-823.24 1266.91,-817.23 1256.34,-816.49 1258.18,-823.24"/>
</g>
<!-- for -->
<g id="node14" class="node">
<title>for</title>
<ellipse fill="none" stroke="black" cx="873" cy="-882" rx="27" ry="18"/>
<text text-anchor="middle" x="873" y="-876.58" font-family="Times New Roman,serif" font-size="14.00">for</text>
</g>
<!-- this&#45;&gt;for -->
<g id="edge181" class="edge">
<title>this&#45;&gt;for</title>
<path fill="none" stroke="black" d="M355.65,-950.3C451.78,-941.18 776.19,-911.45 822,-900 827.53,-898.62 833.3,-896.65 838.93,-894.55"/>
<polygon fill="black" stroke="black" points="839.78,-897.59 847.84,-890.71 837.25,-891.06 839.78,-897.59"/>
</g>
<!-- you&#45;&gt;the -->
<g id="edge98" class="edge">
<title>you&#45;&gt;the</title>
<path fill="none" stroke="black" d="M320.43,-19.08C518.95,-19.81 1736.54,-26.19 2102,-72 2247.51,-90.24 2285.57,-95.6 2424,-144 2661.62,-227.09 2893.79,-410.44 2743,-612 2583.7,-824.94 2438.58,-747.9 2185,-828 2057.95,-868.13 2025.1,-876.26 1894,-900 1621.47,-949.36 1551.1,-950.07 1275,-972 798.65,-1009.84 216.98,-1021.9 64.79,-1024.44"/>
<polygon fill="black" stroke="black" points="65.12,-1020.96 55.18,-1024.62 65.23,-1027.95 65.12,-1020.96"/>
</g>
<!-- you&#45;&gt;this -->
<g id="edge92" class="edge">
<title>you&#45;&gt;this</title>
<path fill="none" stroke="black" d="M295.67,-36.29C306.18,-149.36 330.77,-782.93 330.43,-924.81"/>
<polygon fill="black" stroke="black" points="326.92,-924.56 330.34,-934.59 333.92,-924.62 326.92,-924.56"/>
</g>
<!-- you&#45;&gt;you -->
<g id="edge86" class="edge">
<title>you&#45;&gt;you</title>
<path fill="none" stroke="black" d="M312.9,-30.43C325.69,-33.68 338,-29.53 338,-18 338,-9.89 331.91,-5.44 323.85,-4.63"/>
<polygon fill="black" stroke="black" points="323.56,-1.23 313.9,-5.57 324.16,-8.2 323.56,-1.23"/>
</g>
<!-- you&#45;&gt;in -->
<g id="edge99" class="edge">
<title>you&#45;&gt;in</title>
<path fill="none" stroke="black" d="M320.2,-19.88C426.91,-23.72 825.68,-40.2 1152,-72 1179.93,-74.72 1211.15,-78.85 1234.71,-82.35"/>
<polygon fill="black" stroke="black" points="1233.87,-85.92 1244.29,-83.96 1234.93,-79 1233.87,-85.92"/>
</g>
<!-- you&#45;&gt;to -->
<g id="edge87" class="edge">
<title>you&#45;&gt;to</title>
<path fill="none" stroke="black" d="M320.27,-18.69C365.72,-19.26 456.62,-26.09 513,-72 532,-87.47 543.18,-113.37 547.79,-133.25"/>
<polygon fill="black" stroke="black" points="544.49,-133.64 549.73,-142.85 551.38,-132.39 544.49,-133.64"/>
</g>
<!-- you&#45;&gt;your -->
<g id="edge90" class="edge">
<title>you&#45;&gt;your</title>
<path fill="none" stroke="black" d="M319.76,-21.9C353.51,-27.1 410.85,-40.55 448,-72 490.08,-107.62 467.77,-143.4 509,-180 532.84,-201.16 566.33,-214.67 591.66,-222.74"/>
<polygon fill="black" stroke="black" points="590.38,-226.31 600.97,-225.88 592.42,-219.62 590.38,-226.31"/>
</g>
<!-- you&#45;&gt;that -->
<g id="edge95" class="edge">
<title>you&#45;&gt;that</title>
<path fill="none" stroke="black" d="M319.33,-22.88C366.28,-30.85 466.31,-50.18 549,-72 755.32,-126.44 808.57,-137.54 1007,-216 1061.15,-237.41 1121.53,-267.74 1155.8,-286.89"/>
<polygon fill="black" stroke="black" points="1153.73,-290.3 1164.15,-292.21 1157.19,-284.22 1153.73,-290.3"/>
</g>
<!-- you&#45;&gt;on -->
<g id="edge91" class="edge">
<title>you&#45;&gt;on</title>
<path fill="none" stroke="black" d="M319.72,-21.75C378.34,-28.63 521.24,-47.74 639,-72 714.51,-87.56 1312.07,-237.34 1468,-288 1537.26,-310.5 1616.01,-342.39 1658.44,-361.26"/>
<polygon fill="black" stroke="black" points="1656.86,-364.84 1667.41,-365.76 1659.74,-358.46 1656.86,-364.84"/>
</g>
<!-- you&#45;&gt;and -->
<g id="edge85" class="edge">
<title>you&#45;&gt;and</title>
<path fill="none" stroke="black" d="M319.7,-21.01C388.91,-26.89 578.34,-45.36 734,-72 1173.62,-147.24 1284.67,-167.17 1714,-288 1808.57,-314.62 1835.81,-314.71 1923,-360 1958.52,-378.45 1995.17,-406.32 2017.25,-425.95"/>
<polygon fill="black" stroke="black" points="2014.5,-428.1 2024.23,-432.29 2019.24,-422.95 2014.5,-428.1"/>
</g>
<!-- you&#45;&gt;a -->
<g id="edge96" class="edge">
<title>you&#45;&gt;a</title>
<path fill="none" stroke="black" d="M316.99,-26.45C337.84,-34.27 367,-48.72 382,-72 425.58,-139.67 351.47,-189.35 402,-252 600.89,-498.59 1034.23,-520.57 1164.93,-521.41"/>
<polygon fill="black" stroke="black" points="1164.57,-524.92 1174.58,-521.44 1164.59,-517.92 1164.57,-524.92"/>
</g>
<!-- you&#45;&gt;of -->
<g id="edge89" class="edge">
<title>you&#45;&gt;of</title>
<path fill="none" stroke="black" d="M320.24,-19.19C493.64,-20.58 1443.7,-30.24 1730,-72 1956.69,-105.06 2033.54,-128.52 2198,-288 2237.73,-326.53 2282.12,-345.26 2260,-396 2255.38,-406.59 2072.47,-588.02 2014,-612 1877.9,-667.81 1829.96,-623.05 1685,-648 1670.37,-650.52 1654.28,-654.23 1640.2,-657.54"/>
<polygon fill="black" stroke="black" points="1639.82,-654.27 1630.88,-659.96 1641.42,-661.08 1639.82,-654.27"/>
</g>
<!-- you&#45;&gt;is -->
<g id="edge94" class="edge">
<title>you&#45;&gt;is</title>
<path fill="none" stroke="black" d="M299.43,-35.92C320.48,-108.18 389.49,-393.84 560,-540 652.84,-619.58 780.99,-689.11 837.97,-719.99"/>
<polygon fill="black" stroke="black" points="835.98,-723.44 846.44,-725.13 839.32,-717.29 835.98,-723.44"/>
</g>
<!-- you&#45;&gt;are -->
<g id="edge93" class="edge">
<title>you&#45;&gt;are</title>
<path fill="none" stroke="black" d="M320.24,-18.89C501.77,-18.24 1536.91,-16.82 1846,-72 2042.98,-107.16 2113.13,-134.1 2241,-288 2274.12,-327.87 2299.78,-346.32 2285,-396 2238.6,-551.95 2197.83,-599.15 2059,-684 1987.94,-727.43 1966.85,-736.01 1886,-756 1780.54,-782.08 1445.03,-801.51 1331.13,-807.25"/>
<polygon fill="black" stroke="black" points="1331.01,-803.8 1321.19,-807.8 1331.35,-810.8 1331.01,-803.8"/>
</g>
<!-- you&#45;&gt;for -->
<g id="edge97" class="edge">
<title>you&#45;&gt;for</title>
<path fill="none" stroke="black" d="M320.36,-18.8C508.98,-17.49 1617.01,-12.1 1947,-72 1964.24,-75.13 2617.26,-99.47 2709,-432 2739.76,-543.5 2744.63,-626.97 2644,-684 2333.58,-859.92 1140.33,-878.78 911.15,-880.77"/>
<polygon fill="black" stroke="black" points="911.35,-877.27 901.38,-880.86 911.4,-884.27 911.35,-877.27"/>
</g>
<!-- de -->
<g id="node15" class="node">
<title>de</title>
<ellipse fill="none" stroke="black" cx="1730" cy="-594" rx="27" ry="18"/>
<text text-anchor="middle" x="1730" y="-588.58" font-family="Times New Roman,serif" font-size="14.00">de</text>
</g>
<!-- you&#45;&gt;de -->
<g id="edge88" class="edge">
<title>you&#45;&gt;de</title>
<path fill="none" stroke="black" d="M320.23,-19.34C525.43,-22.24 1822.91,-44.9 1962,-144 2443.04,-486.73 2175.75,-361.61 2100,-468 2023.1,-576.01 1846.15,-591.56 1768.03,-593.18"/>
<polygon fill="black" stroke="black" points="1768.19,-589.69 1758.24,-593.33 1768.29,-596.69 1768.19,-589.69"/>
</g>
<!-- in&#45;&gt;the -->
<g id="edge163" class="edge">
<title>in&#45;&gt;the</title>
<path fill="none" stroke="black" d="M1298.25,-91.98C1430.4,-97.06 1999.72,-121.16 2075,-144 2189.69,-178.8 2227.85,-194.64 2303,-288 2460.2,-483.29 2342.84,-680.67 2140,-828 1965.82,-954.51 1874.61,-873.22 1661,-900 1502.33,-919.89 1459.01,-900.9 1303,-936 1256.51,-946.46 1248.76,-962.82 1202,-972 977.39,-1016.11 241.16,-1023.64 65.03,-1024.8"/>
<polygon fill="black" stroke="black" points="65.23,-1021.31 55.25,-1024.87 65.28,-1028.31 65.23,-1021.31"/>
</g>
<!-- in&#45;&gt;this -->
<g id="edge156" class="edge">
<title>in&#45;&gt;this</title>
<path fill="none" stroke="black" d="M1297.99,-92.36C1412.48,-98.6 1853.29,-124.94 1912,-144 2135.5,-216.55 2242.28,-392.65 2158,-612 2080.58,-813.49 1933.16,-778.75 1723,-828 1559.04,-866.42 1518.16,-879.55 1351,-900 969.68,-946.65 502.67,-952.28 367.32,-952.93"/>
<polygon fill="black" stroke="black" points="367.33,-949.43 357.34,-952.97 367.36,-956.43 367.33,-949.43"/>
</g>
<!-- in&#45;&gt;you -->
<g id="edge159" class="edge">
<title>in&#45;&gt;you</title>
<path fill="none" stroke="black" d="M1244.34,-85.85C1216.45,-82.05 1172.15,-75.72 1134,-72 824.29,-41.81 449.32,-25.44 330.72,-20.57"/>
<polygon fill="black" stroke="black" points="331.19,-17.04 321.06,-20.13 330.9,-24.04 331.19,-17.04"/>
</g>
<!-- in&#45;&gt;in -->
<g id="edge158" class="edge">
<title>in&#45;&gt;in</title>
<path fill="none" stroke="black" d="M1290.9,-102.43C1303.69,-105.68 1316,-101.53 1316,-90 1316,-81.89 1309.91,-77.44 1301.85,-76.63"/>
<polygon fill="black" stroke="black" points="1301.56,-73.23 1291.9,-77.57 1302.16,-80.2 1301.56,-73.23"/>
</g>
<!-- in&#45;&gt;to -->
<g id="edge160" class="edge">
<title>in&#45;&gt;to</title>
<path fill="none" stroke="black" d="M1244.03,-93.29C1160.48,-99.89 899.79,-120.09 684,-144 650.51,-147.71 612.23,-152.92 584.5,-156.6"/>
<polygon fill="black" stroke="black" points="584.14,-153.25 574.68,-158.02 585.05,-160.19 584.14,-153.25"/>
</g>
<!-- in&#45;&gt;your -->
<g id="edge152" class="edge">
<title>in&#45;&gt;your</title>
<path fill="none" stroke="black" d="M1243.81,-90.76C1114.03,-89.88 561.91,-89.41 511,-144 500.09,-155.7 502.35,-166.54 511,-180 528.15,-206.69 562.43,-220.1 589.3,-226.74"/>
<polygon fill="black" stroke="black" points="588.4,-230.35 598.92,-229.12 589.93,-223.52 588.4,-230.35"/>
</g>
<!-- in&#45;&gt;that -->
<g id="edge161" class="edge">
<title>in&#45;&gt;that</title>
<path fill="none" stroke="black" d="M1267.82,-108.16C1255.99,-145.62 1219.52,-234.9 1198.2,-279.18"/>
<polygon fill="black" stroke="black" points="1194.68,-277.4 1193.39,-287.92 1200.96,-280.5 1194.68,-277.4"/>
</g>
<!-- in&#45;&gt;on -->
<g id="edge157" class="edge">
<title>in&#45;&gt;on</title>
<path fill="none" stroke="black" d="M1297.13,-95.49C1354.64,-107.35 1493.15,-143.67 1584,-216 1630.86,-253.31 1666.91,-314.79 1682.17,-350"/>
<polygon fill="black" stroke="black" points="1679.23,-351.07 1686.22,-359.03 1685.72,-348.45 1679.23,-351.07"/>
</g>
<!-- in&#45;&gt;and -->
<g id="edge154" class="edge">
<title>in&#45;&gt;and</title>
<path fill="none" stroke="black" d="M1298,-90.66C1365.95,-90.4 1547.35,-94.36 1687,-144 1715.68,-154.19 1896.63,-268.51 1920,-288 1953.11,-315.61 1958.31,-326.14 1985,-360 2000.88,-380.14 2017.22,-404.19 2027.61,-422.21"/>
<polygon fill="black" stroke="black" points="2024.98,-423.7 2032.86,-430.79 2031.12,-420.34 2024.98,-423.7"/>
</g>
<!-- in&#45;&gt;a -->
<g id="edge153" class="edge">
<title>in&#45;&gt;a</title>
<path fill="none" stroke="black" d="M1285.49,-105.63C1320.38,-149.07 1402.3,-281.48 1378,-396 1370.73,-430.26 1371.27,-443.76 1346,-468 1317.25,-495.58 1272.43,-509.35 1240.48,-515.83"/>
<polygon fill="black" stroke="black" points="1239.95,-512.55 1230.76,-517.82 1241.24,-519.43 1239.95,-512.55"/>
</g>
<!-- in&#45;&gt;is -->
<g id="edge151" class="edge">
<title>in&#45;&gt;is</title>
<path fill="none" stroke="black" d="M1298.13,-91.99C1391.6,-95.9 1698.3,-111.61 1790,-144 1864.77,-170.4 2023.71,-298.69 2074,-360 2125.48,-422.76 2146.74,-470.37 2105,-540 2078.48,-584.23 2060.73,-590.17 2014,-612 1810.69,-706.96 1080.74,-731.65 905.13,-736.16"/>
<polygon fill="black" stroke="black" points="905.28,-732.68 895.37,-736.42 905.46,-739.67 905.28,-732.68"/>
</g>
<!-- in&#45;&gt;are -->
<g id="edge162" class="edge">
<title>in&#45;&gt;are</title>
<path fill="none" stroke="black" d="M1298.01,-92.55C1405.1,-99.21 1795.09,-125.85 1847,-144 1989.78,-193.93 2023.78,-235.72 2110,-360 2130.39,-389.4 2137.78,-397.18 2146,-432 2193.66,-633.9 2007.78,-693.4 1810,-756 1764.89,-770.28 1441.93,-797.58 1330.53,-806.27"/>
<polygon fill="black" stroke="black" points="1330.52,-802.84 1320.82,-807.1 1331.06,-809.82 1330.52,-802.84"/>
</g>
<!-- in&#45;&gt;for -->
<g id="edge155" class="edge">
<title>in&#45;&gt;for</title>
<path fill="none" stroke="black" d="M1297.86,-92.42C1427.81,-99.72 1985.03,-133.09 2020,-144 2035.03,-148.69 2252.78,-276.96 2264,-288 2300.93,-324.37 2323.26,-346.47 2308,-396 2262.43,-543.97 2236.73,-592.27 2112,-684 2023.31,-749.22 1980.42,-724.3 1875,-756 1767.54,-788.31 1743.41,-807.93 1633,-828 1359.79,-877.67 1022.82,-881.4 910.94,-881.23"/>
<polygon fill="black" stroke="black" points="911.23,-877.73 901.22,-881.2 911.21,-884.73 911.23,-877.73"/>
</g>
<!-- to&#45;&gt;the -->
<g id="edge58" class="edge">
<title>to&#45;&gt;the</title>
<path fill="none" stroke="black" d="M539.94,-179.71C532.28,-189.91 521.08,-203.38 512,-216 292.14,-521.54 226.28,-595.41 66,-936 56.35,-956.5 48.34,-980.97 41.59,-999.05"/>
<polygon fill="black" stroke="black" points="38.03,-997.55 37.65,-1008.14 44.55,-1000.1 38.03,-997.55"/>
</g>
<!-- to&#45;&gt;this -->
<g id="edge61" class="edge">
<title>to&#45;&gt;this</title>
<path fill="none" stroke="black" d="M544.48,-180.18C539.81,-190.33 532.81,-203.58 528,-216 424.58,-483.31 360.01,-826.75 337.23,-925.4"/>
<polygon fill="black" stroke="black" points="333.63,-924.4 334.72,-934.94 340.44,-926.02 333.63,-924.4"/>
</g>
<!-- to&#45;&gt;you -->
<g id="edge54" class="edge">
<title>to&#45;&gt;you</title>
<path fill="none" stroke="black" d="M537.41,-144.91C529.56,-124.8 518.02,-90.75 495,-72 447.45,-33.28 375.34,-22.35 331.24,-19.54"/>
<polygon fill="black" stroke="black" points="331.57,-16 321.4,-18.98 331.21,-22.99 331.57,-16"/>
</g>
<!-- to&#45;&gt;in -->
<g id="edge60" class="edge">
<title>to&#45;&gt;in</title>
<path fill="none" stroke="black" d="M572.74,-156.2C596.92,-152.56 633.69,-147.58 666,-144 879.81,-120.31 1137.7,-100.26 1233.21,-93.47"/>
<polygon fill="black" stroke="black" points="1233.31,-96.9 1243.04,-92.71 1232.82,-89.92 1233.31,-96.9"/>
</g>
<!-- to&#45;&gt;to -->
<g id="edge49" class="edge">
<title>to&#45;&gt;to</title>
<path fill="none" stroke="black" d="M566.9,-174.43C579.69,-177.68 592,-173.53 592,-162 592,-153.89 585.91,-149.44 577.85,-148.63"/>
<polygon fill="black" stroke="black" points="577.56,-145.23 567.9,-149.57 578.16,-152.2 577.56,-145.23"/>
</g>
<!-- to&#45;&gt;your -->
<g id="edge59" class="edge">
<title>to&#45;&gt;your</title>
<path fill="none" stroke="black" d="M565.97,-175.02C578.48,-184.64 594.61,-198.42 607.24,-210.13"/>
<polygon fill="black" stroke="black" points="604.3,-212.12 613.97,-216.46 609.12,-207.04 604.3,-212.12"/>
</g>
<!-- to&#45;&gt;that -->
<g id="edge55" class="edge">
<title>to&#45;&gt;that</title>
<path fill="none" stroke="black" d="M572.79,-168.29C587.93,-172.05 606.99,-176.95 624,-180 767.04,-205.68 809.98,-173.66 949,-216 982.09,-226.08 985.85,-239.25 1018,-252 1072.93,-273.78 1089.79,-269.74 1146,-288 1148.15,-288.7 1150.35,-289.44 1152.56,-290.19"/>
<polygon fill="black" stroke="black" points="1151.16,-293.77 1161.75,-293.86 1153.52,-287.18 1151.16,-293.77"/>
</g>
<!-- to&#45;&gt;on -->
<g id="edge53" class="edge">
<title>to&#45;&gt;on</title>
<path fill="none" stroke="black" d="M574.1,-163.91C655.22,-167.15 901.65,-179.94 1102,-216 1286.19,-249.15 1327.62,-277.88 1509,-324 1574.61,-340.68 1592.65,-338.97 1657,-360 1657.93,-360.3 1658.87,-360.62 1659.81,-360.94"/>
<polygon fill="black" stroke="black" points="1658.29,-364.49 1668.88,-364.71 1660.74,-357.93 1658.29,-364.49"/>
</g>
<!-- to&#45;&gt;and -->
<g id="edge56" class="edge">
<title>to&#45;&gt;and</title>
<path fill="none" stroke="black" d="M574.02,-163.3C714.01,-165.65 1367.78,-185.94 1863,-360 1870.62,-362.68 1960.85,-407 2008.41,-432.06"/>
<polygon fill="black" stroke="black" points="2006.39,-435.49 2016.86,-437.1 2009.68,-429.31 2006.39,-435.49"/>
</g>
<!-- to&#45;&gt;a -->
<g id="edge52" class="edge">
<title>to&#45;&gt;a</title>
<path fill="none" stroke="black" d="M574.06,-163.65C633.37,-165.84 777.33,-175.35 889,-216 918.22,-226.64 920.41,-239.77 949,-252 1004.51,-275.75 1030.56,-253.34 1080,-288 1152.58,-338.87 1190.27,-443.2 1201.06,-493.15"/>
<polygon fill="black" stroke="black" points="1197.78,-493.62 1203.09,-502.78 1204.65,-492.3 1197.78,-493.62"/>
</g>
<!-- to&#45;&gt;is -->
<g id="edge50" class="edge">
<title>to&#45;&gt;is</title>
<path fill="none" stroke="black" d="M573.82,-164.86C636.88,-170.94 794.1,-195.54 874,-288 1118.11,-570.49 1069.73,-496.39 1020,-612 1007.86,-640.21 937.67,-693.19 896.53,-720.22"/>
<polygon fill="black" stroke="black" points="895,-717.68 888.49,-726.04 898.79,-723.57 895,-717.68"/>
</g>
<!-- to&#45;&gt;are -->
<g id="edge51" class="edge">
<title>to&#45;&gt;are</title>
<path fill="none" stroke="black" d="M572.85,-167.84C603.39,-175.18 653.96,-190.99 691,-216 727.48,-240.64 735.03,-251.08 759,-288 777.88,-317.08 780.04,-326.51 789,-360 800.47,-402.86 808.41,-724.85 840,-756 869.64,-785.23 1151.45,-801.77 1255.12,-807.09"/>
<polygon fill="black" stroke="black" points="1254.84,-810.63 1265,-807.64 1255.19,-803.64 1254.84,-810.63"/>
</g>
<!-- to&#45;&gt;for -->
<g id="edge57" class="edge">
<title>to&#45;&gt;for</title>
<path fill="none" stroke="black" d="M545.23,-180.12C531.89,-244.6 468.18,-472.54 495,-540 560.05,-703.61 624,-725.28 767,-828 790.02,-844.53 819.01,-857.85 840.98,-867.01"/>
<polygon fill="black" stroke="black" points="839.56,-870.62 850.14,-871.16 842.21,-864.14 839.56,-870.62"/>
</g>
<!-- your&#45;&gt;the -->
<g id="edge84" class="edge">
<title>your&#45;&gt;the</title>
<path fill="none" stroke="black" d="M623.75,-252.01C605.98,-308.42 530.98,-488.64 495,-540 351.65,-744.63 255.26,-743.49 96,-936 78.52,-957.13 61.31,-983.37 48.13,-1001.87"/>
<polygon fill="black" stroke="black" points="44.88,-999.38 41.81,-1009.52 50.54,-1003.51 44.88,-999.38"/>
</g>
<!-- your&#45;&gt;this -->
<g id="edge81" class="edge">
<title>your&#45;&gt;this</title>
<path fill="none" stroke="black" d="M627.94,-252.44C623.62,-307.06 591.06,-479.06 536,-612 483.38,-739.05 391.43,-876.68 349.92,-930.05"/>
<polygon fill="black" stroke="black" points="346.72,-927.45 343.24,-937.45 352.2,-931.8 346.72,-927.45"/>
</g>
<!-- your&#45;&gt;you -->
<g id="edge80" class="edge">
<title>your&#45;&gt;you</title>
<path fill="none" stroke="black" d="M600.17,-228.78C570.13,-222.33 522.27,-207.76 491,-180 449.77,-143.4 472.08,-107.62 430,-72 400.76,-47.25 359.02,-33.65 329.19,-26.44"/>
<polygon fill="black" stroke="black" points="330.31,-22.88 319.78,-24.07 328.75,-29.71 330.31,-22.88"/>
</g>
<!-- your&#45;&gt;to -->
<g id="edge77" class="edge">
<title>your&#45;&gt;to</title>
<path fill="none" stroke="black" d="M607.8,-220.81C595.29,-211.17 579.24,-197.44 566.66,-185.78"/>
<polygon fill="black" stroke="black" points="569.64,-183.83 559.98,-179.48 564.82,-188.91 569.64,-183.83"/>
</g>
<!-- your&#45;&gt;your -->
<g id="edge82" class="edge">
<title>your&#45;&gt;your</title>
<path fill="none" stroke="black" d="M647.64,-246.55C660.43,-249.57 672.61,-245.39 672.61,-234 672.61,-225.99 666.59,-221.55 658.57,-220.66"/>
<polygon fill="black" stroke="black" points="658.36,-217.24 648.64,-221.45 658.87,-224.22 658.36,-217.24"/>
</g>
<!-- your&#45;&gt;on -->
<g id="edge76" class="edge">
<title>your&#45;&gt;on</title>
<path fill="none" stroke="black" d="M654.88,-236.16C742.62,-240.33 1019.44,-255.95 1246,-288 1326.2,-299.35 1562.45,-348.45 1653.15,-368.47"/>
<polygon fill="black" stroke="black" points="1652.2,-372.06 1662.72,-370.81 1653.71,-365.23 1652.2,-372.06"/>
</g>
<!-- your&#45;&gt;a -->
<g id="edge78" class="edge">
<title>your&#45;&gt;a</title>
<path fill="none" stroke="black" d="M654.84,-235.35C708.87,-237 830.69,-245.57 922,-288 1035.08,-340.55 1140.33,-449.96 1182.98,-497.78"/>
<polygon fill="black" stroke="black" points="1179.97,-499.79 1189.21,-504.97 1185.22,-495.15 1179.97,-499.79"/>
</g>
<!-- your&#45;&gt;are -->
<g id="edge83" class="edge">
<title>your&#45;&gt;are</title>
<path fill="none" stroke="black" d="M651.7,-242.68C672.86,-251.42 702.36,-267.23 722,-288 747,-314.44 750.6,-325.12 761,-360 788.53,-452.32 772.33,-479.9 779,-576 780.39,-595.98 775.18,-741.5 789,-756 821.3,-789.87 1142.99,-803.77 1254.95,-807.72"/>
<polygon fill="black" stroke="black" points="1254.61,-811.25 1264.73,-808.1 1254.85,-804.25 1254.61,-811.25"/>
</g>
<!-- your&#45;&gt;for -->
<g id="edge79" class="edge">
<title>your&#45;&gt;for</title>
<path fill="none" stroke="black" d="M643.08,-248.94C650.75,-259.38 658.79,-274.17 664,-288 750.99,-518.91 646.81,-629.21 793,-828 805.47,-844.96 825.14,-857.48 841.96,-866.09"/>
<polygon fill="black" stroke="black" points="839.93,-869.48 850.46,-870.71 842.99,-863.19 839.93,-869.48"/>
</g>
<!-- that&#45;&gt;the -->
<g id="edge64" class="edge">
<title>that&#45;&gt;the</title>
<path fill="none" stroke="black" d="M1159.34,-315.17C1087.3,-338.34 866.77,-409.04 701,-504 559.1,-585.28 159.81,-920.29 53.28,-1005.31"/>
<polygon fill="black" stroke="black" points="51.38,-1003.14 45.72,-1012.1 55.73,-1008.63 51.38,-1003.14"/>
</g>
<!-- that&#45;&gt;this -->
<g id="edge68" class="edge">
<title>that&#45;&gt;this</title>
<path fill="none" stroke="black" d="M1169.49,-321.84C1125.81,-362.43 987,-478.77 872,-576 702.26,-719.52 684,-789.73 491,-900 451.14,-922.78 399.86,-938.06 365.63,-946.15"/>
<polygon fill="black" stroke="black" points="365.13,-942.9 356.15,-948.52 366.67,-949.72 365.13,-942.9"/>
</g>
<!-- that&#45;&gt;you -->
<g id="edge74" class="edge">
<title>that&#45;&gt;you</title>
<path fill="none" stroke="black" d="M1160.54,-295.68C1124.51,-278.45 1052.47,-241.1 989,-216 790.57,-137.54 737.32,-126.44 531,-72 459.74,-53.2 375.62,-36.24 328.76,-26.81"/>
<polygon fill="black" stroke="black" points="329.73,-23.24 319.23,-24.69 328.34,-30.1 329.73,-23.24"/>
</g>
<!-- that&#45;&gt;in -->
<g id="edge67" class="edge">
<title>that&#45;&gt;in</title>
<path fill="none" stroke="black" d="M1186.18,-287.85C1198,-250.39 1234.5,-161.06 1255.81,-116.79"/>
<polygon fill="black" stroke="black" points="1259.33,-118.57 1260.63,-108.06 1253.06,-115.47 1259.33,-118.57"/>
</g>
<!-- that&#45;&gt;to -->
<g id="edge75" class="edge">
<title>that&#45;&gt;to</title>
<path fill="none" stroke="black" d="M1158,-298.38C1148.43,-295.09 1137.72,-291.16 1128,-288 1071.79,-269.74 1054.93,-273.78 1000,-252 967.85,-239.25 964.09,-226.08 931,-216 791.98,-173.66 749.04,-205.68 606,-180 597.67,-178.5 588.85,-176.57 580.6,-174.54"/>
<polygon fill="black" stroke="black" points="581.73,-170.96 571.17,-171.85 579.98,-177.74 581.73,-170.96"/>
</g>
<!-- that&#45;&gt;your -->
<g id="edge71" class="edge">
<title>that&#45;&gt;your</title>
<path fill="none" stroke="black" d="M1156.56,-301.67C1066.4,-290.32 770.79,-253.1 665.04,-239.79"/>
<polygon fill="black" stroke="black" points="665.62,-236.21 655.26,-238.43 664.74,-243.15 665.62,-236.21"/>
</g>
<!-- that&#45;&gt;that -->
<g id="edge72" class="edge">
<title>that&#45;&gt;that</title>
<path fill="none" stroke="black" d="M1202.9,-318.43C1215.69,-321.68 1228,-317.53 1228,-306 1228,-297.89 1221.91,-293.44 1213.85,-292.63"/>
<polygon fill="black" stroke="black" points="1213.56,-289.23 1203.9,-293.57 1214.16,-296.2 1213.56,-289.23"/>
</g>
<!-- that&#45;&gt;on -->
<g id="edge66" class="edge">
<title>that&#45;&gt;on</title>
<path fill="none" stroke="black" d="M1209.74,-310.28C1294.2,-321.32 1554.49,-357.29 1651.85,-371.32"/>
<polygon fill="black" stroke="black" points="1651.23,-374.91 1661.63,-372.88 1652.24,-367.99 1651.23,-374.91"/>
</g>
<!-- that&#45;&gt;and -->
<g id="edge63" class="edge">
<title>that&#45;&gt;and</title>
<path fill="none" stroke="black" d="M1210.35,-306.75C1293.53,-306.43 1548.94,-309.58 1752,-360 1792.61,-370.08 1799.06,-383.52 1839,-396 1911.05,-418.52 1932.95,-409.45 2005,-432 2006.1,-432.35 2007.22,-432.71 2008.34,-433.09"/>
<polygon fill="black" stroke="black" points="2006.75,-436.6 2017.34,-436.79 2009.18,-430.04 2006.75,-436.6"/>
</g>
<!-- that&#45;&gt;a -->
<g id="edge70" class="edge">
<title>that&#45;&gt;a</title>
<path fill="none" stroke="black" d="M1210.3,-306.86C1249.38,-307.97 1319.27,-315.98 1351,-360 1392.97,-418.24 1291.05,-480.87 1235.62,-507.64"/>
<polygon fill="black" stroke="black" points="1234.43,-504.8 1226.86,-512.21 1237.4,-511.14 1234.43,-504.8"/>
</g>
<!-- that&#45;&gt;of -->
<g id="edge69" class="edge">
<title>that&#45;&gt;of</title>
<path fill="none" stroke="black" d="M1209.28,-310.49C1278.48,-320.65 1459.82,-350.1 1468,-360 1519.01,-421.73 1418.29,-471.64 1460,-540 1478.22,-569.86 1502.1,-554.89 1530,-576 1554.33,-594.4 1577.61,-620.36 1591.68,-639.49"/>
<polygon fill="black" stroke="black" points="1589.22,-641.07 1597.81,-647.27 1594.96,-637.07 1589.22,-641.07"/>
</g>
<!-- that&#45;&gt;is -->
<g id="edge73" class="edge">
<title>that&#45;&gt;is</title>
<path fill="none" stroke="black" d="M1199.72,-320.21C1207.99,-330.5 1216.39,-345.45 1220,-360 1223.85,-375.53 1224.07,-380.53 1220,-396 1205.98,-449.32 1135.34,-571.44 1098,-612 1088.36,-622.47 1004.41,-677.02 992,-684 976.09,-692.95 932.57,-712.35 901.19,-725.03"/>
<polygon fill="black" stroke="black" points="900.07,-722.11 892.07,-729.05 902.65,-728.62 900.07,-722.11"/>
</g>
<!-- that&#45;&gt;are -->
<g id="edge65" class="edge">
<title>that&#45;&gt;are</title>
<path fill="none" stroke="black" d="M1208.21,-313.2C1218.85,-316.56 1231.03,-320.69 1242,-324 1301.86,-342.07 1339.86,-310.45 1378,-360 1480,-492.51 1361.58,-712.54 1312.26,-785.03"/>
<polygon fill="black" stroke="black" points="1308.93,-782.68 1306.06,-792.88 1314.66,-786.7 1308.93,-782.68"/>
</g>
<!-- that&#45;&gt;for -->
<g id="edge62" class="edge">
<title>that&#45;&gt;for</title>
<path fill="none" stroke="black" d="M1179.68,-324.3C1167.35,-355.32 1130.79,-421.46 1088,-468 970.38,-595.94 862.28,-562.41 789,-720 764.91,-771.81 818.59,-828.94 851.04,-859.27"/>
<polygon fill="black" stroke="black" points="848.04,-861.19 857.77,-865.38 852.78,-856.03 848.04,-861.19"/>
</g>
<!-- on&#45;&gt;the -->
<g id="edge14" class="edge">
<title>on&#45;&gt;the</title>
<path fill="none" stroke="black" d="M1716.32,-378.68C1799.26,-378.13 2044.6,-380.57 2100,-432 2211.77,-535.76 2113.92,-671.44 1987,-756 1810.83,-873.37 1741.25,-862.01 1533,-900 1404.8,-923.39 1369.7,-910.02 1242,-936 1184.93,-947.61 1173.46,-962.51 1116,-972 907.89,-1006.37 232.93,-1021.24 65.02,-1024.36"/>
<polygon fill="black" stroke="black" points="64.97,-1020.88 55.04,-1024.56 65.1,-1027.88 64.97,-1020.88"/>
</g>
<!-- on&#45;&gt;this -->
<g id="edge19" class="edge">
<title>on&#45;&gt;this</title>
<path fill="none" stroke="black" d="M1692.96,-396.18C1691.81,-415.83 1683.15,-447.87 1664,-468 1554.55,-583.06 1482.58,-548.56 1337,-612 1262.9,-644.29 1244.76,-653.27 1170,-684 1129.39,-700.69 1117.99,-701.88 1078,-720 951.26,-777.43 923.46,-799.82 800,-864 769.31,-879.95 763.97,-889.53 731,-900 663.96,-921.29 453.58,-942.36 366.8,-950"/>
<polygon fill="black" stroke="black" points="366.55,-946.59 356.89,-950.94 367.15,-953.56 366.55,-946.59"/>
</g>
<!-- on&#45;&gt;you -->
<g id="edge24" class="edge">
<title>on&#45;&gt;you</title>
<path fill="none" stroke="black" d="M1665.21,-368.9C1622.23,-352.33 1529.81,-313.93 1450,-288 1294.07,-237.34 696.51,-87.56 621,-72 515.88,-50.34 390.71,-32.79 329.75,-24.38"/>
<polygon fill="black" stroke="black" points="330.52,-20.82 320.13,-22.92 329.56,-27.75 330.52,-20.82"/>
</g>
<!-- on&#45;&gt;in -->
<g id="edge21" class="edge">
<title>on&#45;&gt;in</title>
<path fill="none" stroke="black" d="M1676.84,-361.5C1657.44,-329.97 1618.52,-257.81 1566,-216 1484.84,-151.39 1365.66,-115.51 1306.6,-100.13"/>
<polygon fill="black" stroke="black" points="1307.51,-96.5 1296.95,-97.42 1305.77,-103.28 1307.51,-96.5"/>
</g>
<!-- on&#45;&gt;to -->
<g id="edge20" class="edge">
<title>on&#45;&gt;to</title>
<path fill="none" stroke="black" d="M1664.65,-369.63C1656.39,-366.4 1647.35,-362.73 1639,-360 1574.65,-338.97 1556.61,-340.68 1491,-324 1309.62,-277.88 1268.19,-249.15 1084,-216 898.35,-182.59 673.13,-169.15 584.87,-164.78"/>
<polygon fill="black" stroke="black" points="585.23,-161.25 575.07,-164.26 584.89,-168.24 585.23,-161.25"/>
</g>
<!-- on&#45;&gt;your -->
<g id="edge22" class="edge">
<title>on&#45;&gt;your</title>
<path fill="none" stroke="black" d="M1662.9,-372.22C1578.34,-355.52 1313.82,-300.14 1228,-288 1016.61,-258.09 761.47,-242.49 665.67,-237.16"/>
<polygon fill="black" stroke="black" points="665.96,-233.61 655.79,-236.56 665.58,-240.6 665.96,-233.61"/>
</g>
<!-- on&#45;&gt;that -->
<g id="edge23" class="edge">
<title>on&#45;&gt;that</title>
<path fill="none" stroke="black" d="M1662.56,-373.76C1578.37,-362.76 1317.32,-326.68 1219.97,-312.65"/>
<polygon fill="black" stroke="black" points="1220.6,-309.06 1210.2,-311.09 1219.6,-315.99 1220.6,-309.06"/>
</g>
<!-- on&#45;&gt;on -->
<g id="edge15" class="edge">
<title>on&#45;&gt;on</title>
<path fill="none" stroke="black" d="M1708.9,-390.43C1721.69,-393.68 1734,-389.53 1734,-378 1734,-369.89 1727.91,-365.44 1719.85,-364.63"/>
<polygon fill="black" stroke="black" points="1719.56,-361.23 1709.9,-365.57 1720.16,-368.2 1719.56,-361.23"/>
</g>
<!-- on&#45;&gt;and -->
<g id="edge13" class="edge">
<title>on&#45;&gt;and</title>
<path fill="none" stroke="black" d="M1714.93,-383.53C1732.01,-387.17 1754.34,-392.27 1774,-396 1876.09,-415.35 1904.97,-403.9 2005,-432 2006.11,-432.31 2007.24,-432.65 2008.36,-433"/>
<polygon fill="black" stroke="black" points="2006.82,-436.52 2017.41,-436.56 2009.16,-429.92 2006.82,-436.52"/>
</g>
<!-- on&#45;&gt;a -->
<g id="edge17" class="edge">
<title>on&#45;&gt;a</title>
<path fill="none" stroke="black" d="M1665.02,-386.98C1585.63,-411.49 1332.03,-485.61 1238.21,-511.75"/>
<polygon fill="black" stroke="black" points="1237.54,-508.58 1228.84,-514.62 1239.41,-515.33 1237.54,-508.58"/>
</g>
<!-- on&#45;&gt;is -->
<g id="edge18" class="edge">
<title>on&#45;&gt;is</title>
<path fill="none" stroke="black" d="M1685.1,-396.21C1674.89,-416.18 1651.26,-448.83 1623,-468 1581.13,-496.41 1562.25,-485.92 1515,-504 1327.23,-575.86 1290.79,-620.61 1100,-684 1032.73,-706.35 951.14,-723.17 904.38,-731.4"/>
<polygon fill="black" stroke="black" points="903.81,-728.11 894.55,-733.26 905,-735.01 903.81,-728.11"/>
</g>
<!-- on&#45;&gt;are -->
<g id="edge16" class="edge">
<title>on&#45;&gt;are</title>
<path fill="none" stroke="black" d="M1714.13,-385.5C1724.74,-388.95 1736.92,-393.08 1748,-396 1830.68,-417.82 1882.48,-366.12 1937,-432 1992.04,-498.51 1928.32,-554.42 1864,-612 1781.25,-686.08 1441.56,-774.57 1329.17,-801.11"/>
<polygon fill="black" stroke="black" points="1328.65,-797.87 1319.71,-803.55 1330.25,-804.68 1328.65,-797.87"/>
</g>
<!-- on&#45;&gt;for -->
<g id="edge25" class="edge">
<title>on&#45;&gt;for</title>
<path fill="none" stroke="black" d="M1713.54,-385.93C1754.22,-399.11 1830.53,-426.93 1834,-432 1843.03,-445.21 1843.3,-454.98 1834,-468 1805.33,-508.14 1757.67,-463.86 1729,-504 1719.7,-517.02 1720.92,-526.19 1729,-540 1745.48,-568.17 1776.52,-547.83 1793,-576 1801.08,-589.81 1803.34,-599.79 1793,-612 1761.55,-649.13 1624.47,-637.27 1577,-648 1312.62,-707.75 1007.08,-829.36 906.69,-868.54"/>
<polygon fill="black" stroke="black" points="905.6,-865.6 897.55,-872.49 908.13,-872.12 905.6,-865.6"/>
</g>
<!-- and&#45;&gt;the -->
<g id="edge170" class="edge">
<title>and&#45;&gt;the</title>
<path fill="none" stroke="black" d="M2057.15,-462.12C2069.32,-471.93 2083.06,-487.25 2089,-504 2105.29,-549.93 2089.13,-567.17 2070,-612 2035.45,-692.97 2013.1,-717.37 1934,-756 1622.48,-908.14 1514.38,-865.19 1175,-936 1101.95,-951.24 1084.94,-961.94 1011,-972 645.39,-1021.73 196.68,-1025.21 64.93,-1025.14"/>
<polygon fill="black" stroke="black" points="65.23,-1021.64 55.23,-1025.12 65.22,-1028.64 65.23,-1021.64"/>
</g>
<!-- and&#45;&gt;this -->
<g id="edge164" class="edge">
<title>and&#45;&gt;this</title>
<path fill="none" stroke="black" d="M2051.25,-465.48C2057.19,-475.93 2062.66,-490.52 2065,-504 2073.47,-552.75 2061.77,-568.61 2038,-612 1991.56,-696.78 1964.31,-719.01 1875,-756 1579.53,-878.36 1487,-857.73 1170,-900 862.15,-941.05 485.84,-950.52 366.82,-952.51"/>
<polygon fill="black" stroke="black" points="367.06,-949.02 357.11,-952.68 367.17,-956.02 367.06,-949.02"/>
</g>
<!-- and&#45;&gt;you -->
<g id="edge173" class="edge">
<title>and&#45;&gt;you</title>
<path fill="none" stroke="black" d="M2017.84,-437.15C1992.75,-418.55 1948.04,-382.36 1905,-360 1817.81,-314.71 1790.57,-314.62 1696,-288 1266.67,-167.17 1155.62,-147.24 716,-72 574.31,-47.75 404.65,-30.27 330.52,-22.9"/>
<polygon fill="black" stroke="black" points="331.18,-19.34 320.88,-21.84 330.49,-26.31 331.18,-19.34"/>
</g>
<!-- and&#45;&gt;in -->
<g id="edge169" class="edge">
<title>and&#45;&gt;in</title>
<path fill="none" stroke="black" d="M2021.78,-434.71C2007.63,-416.78 1986.95,-385.3 1967,-360 1940.31,-326.14 1935.11,-315.61 1902,-288 1878.63,-268.51 1697.68,-154.19 1669,-144 1542.49,-99.03 1381.73,-91.55 1309.25,-90.73"/>
<polygon fill="black" stroke="black" points="1309.42,-87.22 1299.4,-90.65 1309.37,-94.22 1309.42,-87.22"/>
</g>
<!-- and&#45;&gt;to -->
<g id="edge176" class="edge">
<title>and&#45;&gt;to</title>
<path fill="none" stroke="black" d="M2014.02,-439.85C1964.66,-417.73 1853.5,-362.99 1845,-360 1367.73,-192.25 743.19,-167.32 584.73,-163.64"/>
<polygon fill="black" stroke="black" points="585.21,-160.12 575.14,-163.41 585.06,-167.12 585.21,-160.12"/>
</g>
<!-- and&#45;&gt;your -->
<g id="edge168" class="edge">
<title>and&#45;&gt;your</title>
<path fill="none" stroke="black" d="M2015.04,-439.37C2008.93,-436.84 2002.25,-434.2 1996,-432 1941.86,-412.98 1924.84,-418.39 1872,-396 1842.31,-383.42 1839.42,-370.7 1809,-360 1590.19,-283.04 844.13,-244.85 665.61,-236.69"/>
<polygon fill="black" stroke="black" points="665.83,-233.15 655.68,-236.19 665.51,-240.14 665.83,-233.15"/>
</g>
<!-- and&#45;&gt;that -->
<g id="edge166" class="edge">
<title>and&#45;&gt;that</title>
<path fill="none" stroke="black" d="M2012.68,-441.53C2004.43,-438.28 1995.38,-434.62 1987,-432 1914.95,-409.45 1893.05,-418.52 1821,-396 1781.06,-383.52 1774.61,-370.08 1734,-360 1545.4,-313.18 1311.65,-307.12 1221.11,-306.75"/>
<polygon fill="black" stroke="black" points="1221.31,-303.25 1211.3,-306.73 1221.29,-310.25 1221.31,-303.25"/>
</g>
<!-- and&#45;&gt;on -->
<g id="edge172" class="edge">
<title>and&#45;&gt;on</title>
<path fill="none" stroke="black" d="M2012.75,-441.3C2004.51,-438.01 1995.46,-434.38 1987,-432 1886.97,-403.9 1858.09,-415.35 1756,-396 1745.35,-393.98 1733.92,-391.56 1723.52,-389.19"/>
<polygon fill="black" stroke="black" points="1724.66,-385.63 1714.12,-386.75 1723.06,-392.44 1724.66,-385.63"/>
</g>
<!-- and&#45;&gt;and -->
<g id="edge165" class="edge">
<title>and&#45;&gt;and</title>
<path fill="none" stroke="black" d="M2056.9,-462.43C2069.69,-465.68 2082,-461.53 2082,-450 2082,-441.89 2075.91,-437.44 2067.85,-436.63"/>
<polygon fill="black" stroke="black" points="2067.56,-433.23 2057.9,-437.57 2068.16,-440.2 2067.56,-433.23"/>
</g>
<!-- and&#45;&gt;a -->
<g id="edge177" class="edge">
<title>and&#45;&gt;a</title>
<path fill="none" stroke="black" d="M2010.14,-453.48C1887.71,-464.2 1383.59,-506.52 1240.79,-518.07"/>
<polygon fill="black" stroke="black" points="1240.68,-514.65 1230.99,-518.94 1241.24,-521.63 1240.68,-514.65"/>
</g>
<!-- and&#45;&gt;of -->
<g id="edge174" class="edge">
<title>and&#45;&gt;of</title>
<path fill="none" stroke="black" d="M2017.03,-462.55C2000.6,-471.38 1978.34,-485.24 1965,-504 1936.33,-544.32 1974.41,-578.5 1938,-612 1895.84,-650.78 1720.54,-661.32 1642.06,-664.07"/>
<polygon fill="black" stroke="black" points="1642.09,-660.6 1632.21,-664.43 1642.31,-667.6 1642.09,-660.6"/>
</g>
<!-- and&#45;&gt;is -->
<g id="edge175" class="edge">
<title>and&#45;&gt;is</title>
<path fill="none" stroke="black" d="M2019.2,-463.8C2001.04,-474.12 1972.84,-489.29 1949,-504 1877.23,-548.28 1871.61,-581.47 1793,-612 1750.82,-628.39 1072.5,-712.76 904.39,-732.75"/>
<polygon fill="black" stroke="black" points="904.15,-729.37 894.63,-734.03 904.97,-736.33 904.15,-729.37"/>
</g>
<!-- and&#45;&gt;are -->
<g id="edge167" class="edge">
<title>and&#45;&gt;are</title>
<path fill="none" stroke="black" d="M2037.49,-468.31C2031.81,-499.9 2008.28,-567.74 1969,-612 1889.7,-701.36 1854.64,-716.17 1742,-756 1609.98,-802.69 1567.96,-774.71 1429,-792 1395.82,-796.13 1357.83,-801.27 1330.29,-804.81"/>
<polygon fill="black" stroke="black" points="1330.02,-801.44 1320.54,-806.18 1330.9,-808.39 1330.02,-801.44"/>
</g>
<!-- and&#45;&gt;for -->
<g id="edge171" class="edge">
<title>and&#45;&gt;for</title>
<path fill="none" stroke="black" d="M2044.45,-467.73C2047.25,-485.86 2046.66,-515.49 2040,-540 2030.61,-574.52 2024.28,-582.53 2004,-612 1943.12,-700.45 1911.42,-720.71 1810,-756 1476.52,-872.03 1040.92,-881.15 911.02,-881.25"/>
<polygon fill="black" stroke="black" points="911.11,-877.75 901.11,-881.24 911.1,-884.75 911.11,-877.75"/>
</g>
<!-- a&#45;&gt;the -->
<g id="edge100" class="edge">
<title>a&#45;&gt;the</title>
<path fill="none" stroke="black" d="M1177.85,-529.16C1090.42,-549.43 793.94,-618.6 565,-720 365.26,-808.47 334.8,-867.44 143,-972 115.89,-986.78 84.1,-1002.3 60.48,-1012.7"/>
<polygon fill="black" stroke="black" points="59.38,-1009.8 51.58,-1016.96 62.15,-1016.23 59.38,-1009.8"/>
</g>
<!-- a&#45;&gt;this -->
<g id="edge107" class="edge">
<title>a&#45;&gt;this</title>
<path fill="none" stroke="black" d="M1208.83,-540.02C1209.78,-558.94 1205.15,-589.76 1191,-612 1163.32,-655.51 1145.92,-660.52 1100,-684 1047.77,-710.72 1026.64,-696.23 973,-720 952.28,-729.18 819.51,-816.47 800,-828 743.47,-861.4 733.04,-878.51 671,-900 615.64,-919.18 443.28,-940.77 366.42,-949.27"/>
<polygon fill="black" stroke="black" points="366.36,-945.87 356.8,-950.43 367.12,-952.83 366.36,-945.87"/>
</g>
<!-- a&#45;&gt;in -->
<g id="edge102" class="edge">
<title>a&#45;&gt;in</title>
<path fill="none" stroke="black" d="M1228.51,-515.42C1256.24,-508.79 1299.84,-495.02 1328,-468 1353.27,-443.76 1352.73,-430.26 1360,-396 1382.46,-290.16 1314.2,-169.06 1284.07,-117"/>
<polygon fill="black" stroke="black" points="1286.63,-115.44 1278.59,-108.54 1280.57,-118.95 1286.63,-115.44"/>
</g>
<!-- a&#45;&gt;to -->
<g id="edge106" class="edge">
<title>a&#45;&gt;to</title>
<path fill="none" stroke="black" d="M1194.64,-504.42C1178.29,-460.92 1140.62,-343.1 1062,-288 1012.56,-253.34 986.51,-275.75 931,-252 902.41,-239.77 900.22,-226.64 871,-216 771.57,-179.8 646.54,-168.3 584.8,-164.66"/>
<polygon fill="black" stroke="black" points="585.2,-161.13 575.03,-164.07 584.82,-168.12 585.2,-161.13"/>
</g>
<!-- a&#45;&gt;that -->
<g id="edge101" class="edge">
<title>a&#45;&gt;that</title>
<path fill="none" stroke="black" d="M1222.57,-509.28C1268.68,-483.51 1375.86,-419.46 1333,-360 1307.29,-324.32 1256.51,-312.3 1221.08,-308.43"/>
<polygon fill="black" stroke="black" points="1221.45,-304.86 1211.17,-307.45 1220.82,-311.83 1221.45,-304.86"/>
</g>
<!-- a&#45;&gt;on -->
<g id="edge109" class="edge">
<title>a&#45;&gt;on</title>
<path fill="none" stroke="black" d="M1226.85,-513.06C1306.01,-488.62 1559.3,-414.59 1653.45,-388.35"/>
<polygon fill="black" stroke="black" points="1654.16,-391.5 1662.86,-385.46 1652.29,-384.76 1654.16,-391.5"/>
</g>
<!-- a&#45;&gt;and -->
<g id="edge105" class="edge">
<title>a&#45;&gt;and</title>
<path fill="none" stroke="black" d="M1229.97,-518.51C1352.64,-507.77 1856.92,-465.44 1999.41,-453.91"/>
<polygon fill="black" stroke="black" points="1999.49,-457.33 2009.18,-453.04 1998.93,-450.36 1999.49,-457.33"/>
</g>
<!-- a&#45;&gt;a -->
<g id="edge108" class="edge">
<title>a&#45;&gt;a</title>
<path fill="none" stroke="black" d="M1222.9,-534.43C1235.69,-537.68 1248,-533.53 1248,-522 1248,-513.89 1241.91,-509.44 1233.85,-508.63"/>
<polygon fill="black" stroke="black" points="1233.56,-505.23 1223.9,-509.57 1234.16,-512.2 1233.56,-505.23"/>
</g>
<!-- a&#45;&gt;is -->
<g id="edge103" class="edge">
<title>a&#45;&gt;is</title>
<path fill="none" stroke="black" d="M1201.03,-540.16C1193.46,-559.21 1175.44,-590.15 1154,-612 1134.06,-632.33 1073.85,-672.07 1048,-684 993.18,-709.3 974.11,-700.4 917,-720 911.94,-721.74 906.6,-723.78 901.34,-725.84"/>
<polygon fill="black" stroke="black" points="900.42,-722.84 892.39,-729.74 902.97,-729.35 900.42,-722.84"/>
</g>
<!-- a&#45;&gt;for -->
<g id="edge104" class="edge">
<title>a&#45;&gt;for</title>
<path fill="none" stroke="black" d="M1225.2,-532.65C1240.22,-541.96 1258.17,-557.35 1266,-576 1272.19,-590.75 1273.39,-597.81 1266,-612 1255.9,-631.4 992.11,-807.82 902.39,-863.94"/>
<polygon fill="black" stroke="black" points="900.94,-861.34 894.29,-869.58 904.64,-867.28 900.94,-861.34"/>
</g>
<!-- a&#45;&gt;de -->
<g id="edge110" class="edge">
<title>a&#45;&gt;de</title>
<path fill="none" stroke="black" d="M1229.69,-526.15C1316.89,-537.1 1592.6,-573.69 1693.04,-587.58"/>
<polygon fill="black" stroke="black" points="1692.47,-591.18 1702.86,-589.09 1693.43,-584.24 1692.47,-591.18"/>
</g>
<!-- of&#45;&gt;the -->
<g id="edge114" class="edge">
<title>of&#45;&gt;the</title>
<path fill="none" stroke="black" d="M1599.6,-683.98C1589.19,-703.14 1566.24,-734.45 1541,-756 1406.47,-870.83 1342.34,-860.22 1170,-900 744.4,-998.24 210.54,-1019.98 65.02,-1024.12"/>
<polygon fill="black" stroke="black" points="64.96,-1020.65 55.06,-1024.42 65.15,-1027.65 64.96,-1020.65"/>
</g>
<!-- of&#45;&gt;this -->
<g id="edge117" class="edge">
<title>of&#45;&gt;this</title>
<path fill="none" stroke="black" d="M1590.44,-681.9C1554.18,-713.94 1453.19,-789.58 1356,-828 1223.65,-880.31 1184.69,-878.61 1044,-900 787.82,-938.94 474.79,-949.69 367.25,-952.27"/>
<polygon fill="black" stroke="black" points="367.24,-948.79 357.32,-952.52 367.4,-955.79 367.24,-948.79"/>
</g>
<!-- of&#45;&gt;you -->
<g id="edge124" class="edge">
<title>of&#45;&gt;you</title>
<path fill="none" stroke="black" d="M1627.35,-656.62C1639.21,-653.56 1653.71,-650.29 1667,-648 1811.96,-623.05 1859.9,-667.81 1996,-612 2054.47,-588.02 2237.38,-406.59 2242,-396 2264.12,-345.26 2219.73,-326.53 2180,-288 2015.54,-128.52 1938.69,-105.06 1712,-72 1433.85,-31.43 529.19,-21.16 331.38,-19.33"/>
<polygon fill="black" stroke="black" points="331.45,-15.82 321.42,-19.23 331.38,-22.82 331.45,-15.82"/>
</g>
<!-- of&#45;&gt;in -->
<g id="edge119" class="edge">
<title>of&#45;&gt;in</title>
<path fill="none" stroke="black" d="M1631.07,-663.32C1703.96,-658.42 1902.74,-642.56 1960,-612 2047.29,-565.42 2128.06,-523.74 2091,-432 2064.25,-365.77 1912.63,-255.31 1853,-216 1800.75,-181.56 1791.29,-164.02 1732,-144 1653.7,-117.56 1404.82,-99.46 1309.06,-93.31"/>
<polygon fill="black" stroke="black" points="1309.36,-89.76 1299.16,-92.62 1308.92,-96.75 1309.36,-89.76"/>
</g>
<!-- of&#45;&gt;to -->
<g id="edge118" class="edge">
<title>of&#45;&gt;to</title>
<path fill="none" stroke="black" d="M1579.25,-658.02C1544.91,-648.25 1480.95,-629.68 1427,-612 1381.71,-597.16 1371.77,-589.29 1326,-576 1256.42,-555.8 1228.29,-578.64 1167,-540 1046.28,-463.89 1082.01,-373.84 968,-288 934.24,-262.58 916.54,-273.22 880,-252 857.55,-238.96 857.67,-226.66 834,-216 750.37,-178.32 641.5,-167.43 584.91,-164.28"/>
<polygon fill="black" stroke="black" points="585.15,-160.74 574.98,-163.73 584.8,-167.73 585.15,-160.74"/>
</g>
<!-- of&#45;&gt;your -->
<g id="edge113" class="edge">
<title>of&#45;&gt;your</title>
<path fill="none" stroke="black" d="M1579.04,-658.65C1540.42,-648.81 1463.85,-629.19 1399,-612 1281.03,-580.72 1243.11,-594.69 1134,-540 970.6,-458.09 972.29,-370.12 809,-288 761.77,-264.25 702.15,-249.44 664.28,-241.7"/>
<polygon fill="black" stroke="black" points="665.23,-238.12 654.74,-239.61 663.87,-244.98 665.23,-238.12"/>
</g>
<!-- of&#45;&gt;that -->
<g id="edge116" class="edge">
<title>of&#45;&gt;that</title>
<path fill="none" stroke="black" d="M1587.66,-651.25C1570.08,-632.47 1541.82,-598.56 1512,-576 1484.1,-554.89 1460.22,-569.86 1442,-540 1400.29,-471.64 1501.01,-421.73 1450,-360 1442.55,-350.98 1291.43,-325.74 1219.81,-313.64"/>
<polygon fill="black" stroke="black" points="1220.48,-310.03 1210.03,-311.81 1219.31,-316.93 1220.48,-310.03"/>
</g>
<!-- of&#45;&gt;on -->
<g id="edge121" class="edge">
<title>of&#45;&gt;on</title>
<path fill="none" stroke="black" d="M1630.71,-662.94C1685.94,-658.07 1809.68,-643.78 1835,-612 1891.22,-541.43 1749.94,-565.28 1732,-540 1722.74,-526.95 1721.93,-516.43 1732,-504 1780.63,-444 1853.37,-528 1902,-468 1984.68,-365.97 1889.44,-438.05 1739,-396 1733.67,-394.51 1728.08,-392.78 1722.64,-391"/>
<polygon fill="black" stroke="black" points="1724.08,-387.46 1713.49,-387.58 1721.85,-394.09 1724.08,-387.46"/>
</g>
<!-- of&#45;&gt;and -->
<g id="edge122" class="edge">
<title>of&#45;&gt;and</title>
<path fill="none" stroke="black" d="M1631.29,-664.13C1700.16,-661.47 1877.56,-651.04 1920,-612 1956.41,-578.5 1918.33,-544.32 1947,-504 1960.46,-485.08 1982.98,-471.14 2002.28,-462.32"/>
<polygon fill="black" stroke="black" points="2003.47,-465.2 2011.31,-458.06 2000.73,-458.75 2003.47,-465.2"/>
</g>
<!-- of&#45;&gt;a -->
<g id="edge123" class="edge">
<title>of&#45;&gt;a</title>
<path fill="none" stroke="black" d="M1584.25,-653.13C1552.25,-634.35 1486.63,-597.71 1427,-576 1362.96,-552.69 1284.83,-536.91 1239.81,-528.98"/>
<polygon fill="black" stroke="black" points="1240.55,-525.39 1230.1,-527.13 1239.36,-532.28 1240.55,-525.39"/>
</g>
<!-- of&#45;&gt;of -->
<g id="edge125" class="edge">
<title>of&#45;&gt;of</title>
<path fill="none" stroke="black" d="M1623.9,-678.43C1636.69,-681.68 1649,-677.53 1649,-666 1649,-657.89 1642.91,-653.44 1634.85,-652.63"/>
<polygon fill="black" stroke="black" points="1634.56,-649.23 1624.9,-653.57 1635.16,-656.2 1634.56,-649.23"/>
</g>
<!-- of&#45;&gt;is -->
<g id="edge112" class="edge">
<title>of&#45;&gt;is</title>
<path fill="none" stroke="black" d="M1585.93,-679.58C1581.45,-681.32 1576.65,-682.89 1572,-684 1507.3,-699.46 1041.55,-727.39 904.65,-735.03"/>
<polygon fill="black" stroke="black" points="904.69,-731.57 894.9,-735.62 905.08,-738.56 904.69,-731.57"/>
</g>
<!-- of&#45;&gt;are -->
<g id="edge120" class="edge">
<title>of&#45;&gt;are</title>
<path fill="none" stroke="black" d="M1583.36,-678.18C1530.41,-704.08 1390.29,-768.1 1325.95,-795.84"/>
<polygon fill="black" stroke="black" points="1324.76,-792.97 1316.94,-800.12 1327.51,-799.4 1324.76,-792.97"/>
</g>
<!-- of&#45;&gt;for -->
<g id="edge115" class="edge">
<title>of&#45;&gt;for</title>
<path fill="none" stroke="black" d="M1582.12,-676.86C1576.01,-679.4 1569.31,-681.98 1563,-684 1495.23,-705.7 1474.57,-697.7 1407,-720 1292.84,-757.68 1274.5,-794.66 1159,-828 1057.06,-857.43 1026.07,-838.82 923,-864 917.57,-865.33 911.9,-866.98 906.4,-868.74"/>
<polygon fill="black" stroke="black" points="905.52,-865.68 897.15,-872.18 907.74,-872.32 905.52,-865.68"/>
</g>
<!-- of&#45;&gt;de -->
<g id="edge111" class="edge">
<title>of&#45;&gt;de</title>
<path fill="none" stroke="black" d="M1624.24,-653.75C1644.82,-642.32 1676.91,-624.49 1700.35,-611.47"/>
<polygon fill="black" stroke="black" points="1701.76,-614.13 1708.81,-606.22 1698.36,-608.02 1701.76,-614.13"/>
</g>
<!-- is&#45;&gt;the -->
<g id="edge139" class="edge">
<title>is&#45;&gt;the</title>
<path fill="none" stroke="black" d="M845.26,-749.05C781.39,-775.36 590.05,-847.79 428,-900 372.56,-917.86 356.65,-915.87 302,-936 265.79,-949.34 259.22,-958.7 223,-972 168.86,-991.88 103.65,-1008.84 63.61,-1017.92"/>
<polygon fill="black" stroke="black" points="63.02,-1014.68 54.01,-1020.26 64.53,-1021.52 63.02,-1014.68"/>
</g>
<!-- is&#45;&gt;this -->
<g id="edge146" class="edge">
<title>is&#45;&gt;this</title>
<path fill="none" stroke="black" d="M852.91,-753.63C815.1,-785.46 709.51,-861.26 609,-900 526.35,-931.86 421.83,-945.34 366.69,-950.37"/>
<polygon fill="black" stroke="black" points="366.67,-946.95 357.01,-951.3 367.28,-953.92 366.67,-946.95"/>
</g>
<!-- is&#45;&gt;you -->
<g id="edge149" class="edge">
<title>is&#45;&gt;you</title>
<path fill="none" stroke="black" d="M844.03,-727.87C788.2,-702.51 643.85,-627.31 542,-540 379.35,-400.57 309.06,-134.22 294.91,-47.24"/>
<polygon fill="black" stroke="black" points="298.23,-46.79 293.31,-37.41 291.31,-47.82 298.23,-46.79"/>
</g>
<!-- is&#45;&gt;in -->
<g id="edge147" class="edge">
<title>is&#45;&gt;in</title>
<path fill="none" stroke="black" d="M894.35,-736.3C1046.79,-732.18 1790.48,-708 1996,-612 2042.73,-590.17 2060.48,-584.23 2087,-540 2128.74,-470.37 2107.48,-422.76 2056,-360 2005.71,-298.69 1846.77,-170.4 1772,-144 1686.02,-113.64 1411.07,-97.93 1309.25,-92.87"/>
<polygon fill="black" stroke="black" points="1309.43,-89.32 1299.27,-92.33 1309.09,-96.31 1309.43,-89.32"/>
</g>
<!-- is&#45;&gt;to -->
<g id="edge145" class="edge">
<title>is&#45;&gt;to</title>
<path fill="none" stroke="black" d="M882.2,-722.74C915.11,-696.62 989.48,-641.12 1002,-612 1051.73,-496.39 1100.11,-570.49 856,-288 784.14,-204.84 649.72,-176.58 584.35,-167.31"/>
<polygon fill="black" stroke="black" points="585.1,-163.74 574.73,-165.88 584.17,-170.68 585.1,-163.74"/>
</g>
<!-- is&#45;&gt;your -->
<g id="edge148" class="edge">
<title>is&#45;&gt;your</title>
<path fill="none" stroke="black" d="M877.18,-720.83C889.67,-701.84 912.24,-670.15 937,-648 959.61,-627.77 980.25,-638.51 995,-612 1002.78,-598.02 1003.21,-589.73 995,-576 977.65,-546.99 954.61,-560.85 928,-540 894.07,-513.41 887.31,-503.61 863,-468 812.23,-393.63 838.01,-347.01 770,-288 739.86,-261.85 695.64,-248.12 664.36,-241.25"/>
<polygon fill="black" stroke="black" points="665.39,-237.68 654.89,-239.1 663.98,-244.54 665.39,-237.68"/>
</g>
<!-- is&#45;&gt;that -->
<g id="edge150" class="edge">
<title>is&#45;&gt;that</title>
<path fill="none" stroke="black" d="M886.97,-725.52C913.43,-712.86 957.89,-693.07 974,-684 986.41,-677.02 1070.36,-622.47 1080,-612 1117.34,-571.44 1187.98,-449.32 1202,-396 1206.07,-380.53 1205.85,-375.53 1202,-360 1199.78,-351.05 1195.75,-341.95 1191.79,-333.87"/>
<polygon fill="black" stroke="black" points="1194.58,-332.64 1186.96,-325.28 1188.33,-335.78 1194.58,-332.64"/>
</g>
<!-- is&#45;&gt;on -->
<g id="edge143" class="edge">
<title>is&#45;&gt;on</title>
<path fill="none" stroke="black" d="M892.63,-731.35C933.49,-723.1 1014.87,-706.3 1082,-684 1272.79,-620.61 1309.23,-575.86 1497,-504 1544.25,-485.92 1563.13,-496.41 1605,-468 1630.66,-450.59 1652.52,-422.06 1667.84,-402.01"/>
<polygon fill="black" stroke="black" points="1671.09,-404.52 1674.41,-394.46 1665.54,-400.25 1671.09,-404.52"/>
</g>
<!-- is&#45;&gt;and -->
<g id="edge144" class="edge">
<title>is&#45;&gt;and</title>
<path fill="none" stroke="black" d="M893.34,-733.44C1038.29,-714.78 1732.32,-628.58 1775,-612 1853.61,-581.47 1859.23,-548.28 1931,-504 1954.58,-489.45 1982.41,-474.46 2003.82,-464.14"/>
<polygon fill="black" stroke="black" points="2005.2,-466.9 2012.76,-459.48 2002.22,-460.56 2005.2,-466.9"/>
</g>
<!-- is&#45;&gt;a -->
<g id="edge142" class="edge">
<title>is&#45;&gt;a</title>
<path fill="none" stroke="black" d="M886.16,-724.83C890.36,-723.12 894.77,-721.45 899,-720 956.11,-700.4 975.18,-709.3 1030,-684 1055.85,-672.07 1116.06,-632.33 1136,-612 1155.03,-592.61 1171.36,-566.06 1183.52,-547.01"/>
<polygon fill="black" stroke="black" points="1186.98,-549.11 1189.49,-538.82 1181.11,-545.3 1186.98,-549.11"/>
</g>
<!-- is&#45;&gt;of -->
<g id="edge140" class="edge">
<title>is&#45;&gt;of</title>
<path fill="none" stroke="black" d="M893.98,-735.27C1013.22,-728.01 1488.58,-699.63 1554,-684 1559.3,-682.73 1564.8,-680.87 1570.17,-678.84"/>
<polygon fill="black" stroke="black" points="1571.26,-681.77 1579.26,-674.83 1568.68,-675.27 1571.26,-681.77"/>
</g>
<!-- is&#45;&gt;for -->
<g id="edge141" class="edge">
<title>is&#45;&gt;for</title>
<path fill="none" stroke="black" d="M884.37,-752.1C893.11,-762.35 902.12,-777.28 906,-792 910.08,-807.47 909.38,-812.36 906,-828 903.78,-838.3 899.38,-849 894.35,-858.07"/>
<polygon fill="black" stroke="black" points="891,-855.83 888.7,-866.17 896.95,-859.52 891,-855.83"/>
</g>
<!-- are&#45;&gt;the -->
<g id="edge34" class="edge">
<title>are&#45;&gt;the</title>
<path fill="none" stroke="black" d="M1270.26,-820.28C1225.79,-838.11 1123.85,-877.39 1035,-900 941.32,-923.84 701.87,-959.59 606,-972 402.51,-998.35 157.13,-1016.27 64.67,-1022.53"/>
<polygon fill="black" stroke="black" points="64.66,-1019.09 54.92,-1023.26 65.13,-1026.08 64.66,-1019.09"/>
</g>
<!-- are&#45;&gt;this -->
<g id="edge30" class="edge">
<title>are&#45;&gt;this</title>
<path fill="none" stroke="black" d="M1269.66,-819.39C1212.83,-837.21 1063.75,-878.93 936,-900 723.04,-935.13 463.32,-948.1 367.07,-951.78"/>
<polygon fill="black" stroke="black" points="367.02,-948.32 357.16,-952.18 367.28,-955.31 367.02,-948.32"/>
</g>
<!-- are&#45;&gt;you -->
<g id="edge26" class="edge">
<title>are&#45;&gt;you</title>
<path fill="none" stroke="black" d="M1319.91,-807.46C1418.89,-801.98 1761.27,-782.4 1868,-756 1948.85,-736.01 1969.94,-727.43 2041,-684 2179.83,-599.15 2220.6,-551.95 2267,-396 2281.78,-346.32 2256.12,-327.87 2223,-288 2095.13,-134.1 2024.98,-107.16 1828,-72 1527.07,-18.28 537.95,-18.21 331.09,-18.83"/>
<polygon fill="black" stroke="black" points="331.19,-15.34 321.2,-18.87 331.22,-22.34 331.19,-15.34"/>
</g>
<!-- are&#45;&gt;in -->
<g id="edge39" class="edge">
<title>are&#45;&gt;in</title>
<path fill="none" stroke="black" d="M1319.73,-806.55C1416.85,-798.18 1746.4,-770.43 1792,-756 1989.78,-693.4 2175.66,-633.9 2128,-432 2119.78,-397.18 2112.39,-389.4 2092,-360 2005.78,-235.72 1971.78,-193.93 1829,-144 1779.78,-126.79 1426.59,-101.95 1308.92,-93.74"/>
<polygon fill="black" stroke="black" points="1309.19,-90.18 1298.97,-92.98 1308.7,-97.17 1309.19,-90.18"/>
</g>
<!-- are&#45;&gt;to -->
<g id="edge38" class="edge">
<title>are&#45;&gt;to</title>
<path fill="none" stroke="black" d="M1265.77,-807.96C1169.92,-803.8 853.51,-787.07 822,-756 790.41,-724.85 782.47,-402.86 771,-360 762.04,-326.51 759.88,-317.08 741,-288 717.03,-251.08 709.48,-240.64 673,-216 644.39,-196.68 607.7,-182.85 581.18,-174.17"/>
<polygon fill="black" stroke="black" points="582.43,-170.58 571.84,-170.88 580.31,-177.25 582.43,-170.58"/>
</g>
<!-- are&#45;&gt;your -->
<g id="edge36" class="edge">
<title>are&#45;&gt;your</title>
<path fill="none" stroke="black" d="M1265.91,-808.32C1163.46,-805.32 805.18,-791.84 771,-756 757.18,-741.5 762.39,-595.98 761,-576 754.33,-479.9 770.53,-452.32 743,-360 732.6,-325.12 729,-314.44 704,-288 690.13,-273.33 671.34,-261.14 655.69,-252.16"/>
<polygon fill="black" stroke="black" points="657.85,-248.8 647.42,-246.99 654.45,-254.92 657.85,-248.8"/>
</g>
<!-- are&#45;&gt;that -->
<g id="edge27" class="edge">
<title>are&#45;&gt;that</title>
<path fill="none" stroke="black" d="M1300.32,-792.61C1334.31,-729.31 1465.85,-497.52 1360,-360 1321.86,-310.45 1283.86,-342.07 1224,-324 1220.85,-323.05 1217.61,-322.03 1214.38,-320.99"/>
<polygon fill="black" stroke="black" points="1215.84,-317.45 1205.25,-317.59 1213.62,-324.09 1215.84,-317.45"/>
</g>
<!-- are&#45;&gt;on -->
<g id="edge35" class="edge">
<title>are&#45;&gt;on</title>
<path fill="none" stroke="black" d="M1317.81,-802.15C1414.33,-776.97 1762.13,-687.08 1846,-612 1910.32,-554.42 1974.04,-498.51 1919,-432 1864.48,-366.12 1812.68,-417.82 1730,-396 1726.78,-395.15 1723.47,-394.2 1720.18,-393.19"/>
<polygon fill="black" stroke="black" points="1721.49,-389.61 1710.9,-389.85 1719.32,-396.27 1721.49,-389.61"/>
</g>
<!-- are&#45;&gt;and -->
<g id="edge33" class="edge">
<title>are&#45;&gt;and</title>
<path fill="none" stroke="black" d="M1319,-804.36C1343,-800.84 1379.21,-795.96 1411,-792 1549.96,-774.71 1591.98,-802.69 1724,-756 1836.64,-716.17 1871.7,-701.36 1951,-612 1986.81,-571.64 2009.54,-511.68 2023.24,-477.47"/>
<polygon fill="black" stroke="black" points="2026.84,-478.91 2027.37,-468.33 2020.36,-476.26 2026.84,-478.91"/>
</g>
<!-- are&#45;&gt;a -->
<g id="edge29" class="edge">
<title>are&#45;&gt;a</title>
<path fill="none" stroke="black" d="M1298.66,-792.07C1312.23,-751.21 1345.82,-647.91 1351,-612 1353.28,-596.16 1360.21,-589.08 1351,-576 1344.24,-566.4 1279.67,-545.75 1238.08,-533.25"/>
<polygon fill="black" stroke="black" points="1239.12,-529.61 1228.54,-530.11 1237.12,-536.32 1239.12,-529.61"/>
</g>
<!-- are&#45;&gt;of -->
<g id="edge32" class="edge">
<title>are&#45;&gt;of</title>
<path fill="none" stroke="black" d="M1313.56,-797.86C1366.48,-771.97 1506.79,-707.86 1571.13,-680.13"/>
<polygon fill="black" stroke="black" points="1572.32,-683 1580.14,-675.85 1569.57,-676.56 1572.32,-683"/>
</g>
<!-- are&#45;&gt;is -->
<g id="edge37" class="edge">
<title>are&#45;&gt;is</title>
<path fill="none" stroke="black" d="M1266.67,-804.67C1193.66,-792.68 988.44,-758.96 904,-745.08"/>
<polygon fill="black" stroke="black" points="904.59,-741.46 894.15,-743.3 903.45,-748.37 904.59,-741.46"/>
</g>
<!-- are&#45;&gt;are -->
<g id="edge28" class="edge">
<title>are&#45;&gt;are</title>
<path fill="none" stroke="black" d="M1312.9,-822.43C1325.69,-825.68 1338,-821.53 1338,-810 1338,-801.89 1331.91,-797.44 1323.85,-796.63"/>
<polygon fill="black" stroke="black" points="1323.56,-793.23 1313.9,-797.57 1324.16,-800.2 1323.56,-793.23"/>
</g>
<!-- are&#45;&gt;for -->
<g id="edge31" class="edge">
<title>are&#45;&gt;for</title>
<path fill="none" stroke="black" d="M1267.65,-817.01C1250.23,-820.31 1226.86,-824.45 1206,-828 1099.15,-846.2 972.26,-866.61 910.37,-875.9"/>
<polygon fill="black" stroke="black" points="909.97,-872.57 900.59,-877.5 911,-879.49 909.97,-872.57"/>
</g>
<!-- for&#45;&gt;the -->
<g id="edge129" class="edge">
<title>for&#45;&gt;the</title>
<path fill="none" stroke="black" d="M851.09,-892.95C844.71,-895.55 837.67,-898.14 831,-900 542.61,-980.43 180.66,-1013.36 64.62,-1022.31"/>
<polygon fill="black" stroke="black" points="64.56,-1018.88 54.86,-1023.13 65.09,-1025.86 64.56,-1018.88"/>
</g>
<!-- for&#45;&gt;this -->
<g id="edge133" class="edge">
<title>for&#45;&gt;this</title>
<path fill="none" stroke="black" d="M854.22,-895.45C849.63,-897.21 844.73,-898.82 840,-900 794.73,-911.31 477.38,-940.48 366.77,-949.97"/>
<polygon fill="black" stroke="black" points="366.5,-946.57 356.83,-950.9 367.09,-953.54 366.5,-946.57"/>
</g>
<!-- for&#45;&gt;you -->
<g id="edge135" class="edge">
<title>for&#45;&gt;you</title>
<path fill="none" stroke="black" d="M900.41,-880.82C1098.68,-879.13 2312.51,-861.66 2626,-684 2726.63,-626.97 2721.76,-543.5 2691,-432 2599.26,-99.47 1946.24,-75.13 1929,-72 1607.22,-13.59 545.68,-17.26 331,-18.69"/>
<polygon fill="black" stroke="black" points="331.28,-15.2 321.3,-18.77 331.33,-22.2 331.28,-15.2"/>
</g>
<!-- for&#45;&gt;in -->
<g id="edge127" class="edge">
<title>for&#45;&gt;in</title>
<path fill="none" stroke="black" d="M900.36,-881.23C998.32,-881.47 1339.16,-878.14 1615,-828 1725.41,-807.93 1749.54,-788.31 1857,-756 1962.42,-724.3 2005.31,-749.22 2094,-684 2218.73,-592.27 2244.43,-543.97 2290,-396 2305.26,-346.47 2282.93,-324.37 2246,-288 2234.78,-276.96 2017.03,-148.69 2002,-144 1968.44,-133.53 1453.85,-102.37 1308.74,-93.42"/>
<polygon fill="black" stroke="black" points="1308.98,-89.87 1298.78,-92.75 1308.55,-96.86 1308.98,-89.87"/>
</g>
<!-- for&#45;&gt;to -->
<g id="edge138" class="edge">
<title>for&#45;&gt;to</title>
<path fill="none" stroke="black" d="M848.09,-874.9C821.55,-866.59 779.89,-850.19 749,-828 606,-725.28 542.05,-703.61 477,-540 451.32,-475.4 508.63,-263.69 535.16,-189.21"/>
<polygon fill="black" stroke="black" points="538.65,-190.84 538.83,-180.25 532.09,-188.42 538.65,-190.84"/>
</g>
<!-- for&#45;&gt;your -->
<g id="edge134" class="edge">
<title>for&#45;&gt;your</title>
<path fill="none" stroke="black" d="M847.75,-874.87C824.86,-867.19 792.69,-852.05 775,-828 628.81,-629.21 732.99,-518.91 646,-288 642.7,-279.24 638.26,-270.08 634.28,-261.9"/>
<polygon fill="black" stroke="black" points="637.08,-260.65 629.6,-253.15 630.77,-263.68 637.08,-260.65"/>
</g>
<!-- for&#45;&gt;that -->
<g id="edge137" class="edge">
<title>for&#45;&gt;that</title>
<path fill="none" stroke="black" d="M852.98,-869.66C815.85,-843.88 743.78,-778.54 771,-720 844.28,-562.41 952.38,-595.94 1070,-468 1109.77,-424.75 1144.15,-364.57 1164.61,-331.39"/>
<polygon fill="black" stroke="black" points="1167.91,-333.72 1170.26,-323.39 1161.98,-330 1167.91,-333.72"/>
</g>
<!-- for&#45;&gt;on -->
<g id="edge131" class="edge">
<title>for&#45;&gt;on</title>
<path fill="none" stroke="black" d="M894.49,-870.54C978.28,-833.67 1289.95,-708.8 1559,-648 1606.47,-637.27 1743.55,-649.13 1775,-612 1785.34,-599.79 1783.08,-589.81 1775,-576 1758.52,-547.83 1727.48,-568.17 1711,-540 1702.92,-526.19 1701.7,-517.02 1711,-504 1739.67,-463.86 1787.33,-508.14 1816,-468 1825.3,-454.98 1825.03,-445.21 1816,-432 1813.05,-427.69 1757.41,-406.92 1720.64,-392.7"/>
<polygon fill="black" stroke="black" points="1722.41,-389.24 1711.82,-388.88 1719.87,-395.77 1722.41,-389.24"/>
</g>
<!-- for&#45;&gt;and -->
<g id="edge132" class="edge">
<title>for&#45;&gt;and</title>
<path fill="none" stroke="black" d="M900.34,-881.25C1013.66,-881.33 1454.98,-873.26 1792,-756 1893.42,-720.71 1925.12,-700.45 1986,-612 2006.28,-582.53 2012.61,-574.52 2022,-540 2027.43,-520.02 2028.83,-496.63 2030.2,-478.85"/>
<polygon fill="black" stroke="black" points="2033.76,-479.33 2031.15,-469.06 2026.79,-478.72 2033.76,-479.33"/>
</g>
<!-- for&#45;&gt;a -->
<g id="edge136" class="edge">
<title>for&#45;&gt;a</title>
<path fill="none" stroke="black" d="M889.74,-867.72C961.5,-816.25 1237.67,-631.86 1248,-612 1255.39,-597.81 1254.19,-590.75 1248,-576 1242.94,-563.94 1233.65,-553.25 1224.72,-544.68"/>
<polygon fill="black" stroke="black" points="1227.5,-542.57 1217.74,-538.44 1222.79,-547.75 1227.5,-542.57"/>
</g>
<!-- for&#45;&gt;is -->
<g id="edge126" class="edge">
<title>for&#45;&gt;is</title>
<path fill="none" stroke="black" d="M875.08,-863.98C879.27,-853.89 885.27,-840.64 888,-828 891.38,-812.36 892.08,-807.47 888,-792 885.61,-782.94 881.29,-773.81 877.02,-765.73"/>
<polygon fill="black" stroke="black" points="879.66,-764.26 871.8,-757.15 873.51,-767.61 879.66,-764.26"/>
</g>
<!-- for&#45;&gt;are -->
<g id="edge130" class="edge">
<title>for&#45;&gt;are</title>
<path fill="none" stroke="black" d="M898.61,-876.09C952.48,-866.89 1080.4,-846.33 1188,-828 1210.38,-824.19 1235.67,-819.7 1255.97,-816.3"/>
<polygon fill="black" stroke="black" points="1256.38,-819.61 1265.68,-814.53 1255.24,-812.7 1256.38,-819.61"/>
</g>
<!-- for&#45;&gt;for -->
<g id="edge128" class="edge">
<title>for&#45;&gt;for</title>
<path fill="none" stroke="black" d="M892.9,-894.43C905.69,-897.68 918,-893.53 918,-882 918,-873.89 911.91,-869.44 903.85,-868.63"/>
<polygon fill="black" stroke="black" points="903.56,-865.23 893.9,-869.57 904.16,-872.2 903.56,-865.23"/>
</g>
<!-- de&#45;&gt;the -->
<g id="edge40" class="edge">
<title>de&#45;&gt;the</title>
<path fill="none" stroke="black" d="M1718.86,-610.55C1705.38,-628.94 1681.55,-660.05 1658,-684 1623.05,-719.54 1610.74,-724.63 1572,-756 1531.64,-788.67 1525.67,-803.3 1480,-828 1392.47,-875.33 1364.21,-874.61 1268,-900 1247.38,-905.44 912.16,-969.34 891,-972 573.57,-1011.88 186.6,-1022.08 65.26,-1024.39"/>
<polygon fill="black" stroke="black" points="65.29,-1020.91 55.36,-1024.59 65.42,-1027.91 65.29,-1020.91"/>
</g>
<!-- de&#45;&gt;this -->
<g id="edge43" class="edge">
<title>de&#45;&gt;this</title>
<path fill="none" stroke="black" d="M1703.93,-599.65C1655.78,-608.36 1549.7,-628.03 1461,-648 1397.48,-662.3 1382.66,-670.36 1319,-684 1228.55,-703.38 1195.77,-676.74 1114,-720 1054.83,-751.31 1067.66,-795.73 1009,-828 940.57,-865.64 907.82,-831.07 837,-864 813.46,-874.94 815.02,-890.15 791,-900 771.41,-908.03 473.48,-938.51 366.71,-949.24"/>
<polygon fill="black" stroke="black" points="366.43,-945.85 356.83,-950.33 367.13,-952.81 366.43,-945.85"/>
</g>
<!-- de&#45;&gt;you -->
<g id="edge41" class="edge">
<title>de&#45;&gt;you</title>
<path fill="none" stroke="black" d="M1757.22,-593.21C1825.79,-591.76 2004.58,-576.73 2082,-468 2157.75,-361.61 2425.04,-486.73 1944,-144 1808.02,-47.11 564.87,-23.29 330.85,-19.57"/>
<polygon fill="black" stroke="black" points="331.23,-16.06 321.17,-19.4 331.12,-23.06 331.23,-16.06"/>
</g>
<!-- de&#45;&gt;to -->
<g id="edge42" class="edge">
<title>de&#45;&gt;to</title>
<path fill="none" stroke="black" d="M1722.27,-576.48C1701.05,-533.14 1637.45,-415.68 1547,-360 1477.89,-317.46 1446.95,-342.76 1368,-324 1309.26,-310.04 1295.4,-303.32 1237,-288 1173.19,-271.26 1155.95,-271.72 1093,-252 1049.91,-238.5 1041.86,-226.72 998,-216 847.99,-179.35 663.52,-167.76 585.13,-164.33"/>
<polygon fill="black" stroke="black" points="585.49,-160.8 575.35,-163.89 585.2,-167.8 585.49,-160.8"/>
</g>
<!-- de&#45;&gt;that -->
<g id="edge46" class="edge">
<title>de&#45;&gt;that</title>
<path fill="none" stroke="black" d="M1708.2,-582.87C1702.09,-580.33 1695.37,-577.81 1689,-576 1641.14,-562.38 1500.23,-577.91 1468,-540 1415.19,-477.89 1543.63,-479.23 1551,-468 1578.68,-425.82 1556.53,-390.06 1516,-360 1510.06,-355.59 1305.81,-325.09 1220.19,-312.46"/>
<polygon fill="black" stroke="black" points="1220.8,-308.87 1210.4,-310.87 1219.78,-315.79 1220.8,-308.87"/>
</g>
<!-- de&#45;&gt;on -->
<g id="edge47" class="edge">
<title>de&#45;&gt;on</title>
<path fill="none" stroke="black" d="M1730.29,-575.69C1731.41,-556.51 1735.7,-525.45 1751,-504 1768.4,-479.61 1793.54,-494.24 1808,-468 1815.72,-453.99 1816.71,-445.42 1808,-432 1802.95,-424.22 1755.51,-404.65 1722.08,-391.59"/>
<polygon fill="black" stroke="black" points="1723.81,-388.12 1713.22,-387.77 1721.28,-394.65 1723.81,-388.12"/>
</g>
<!-- de&#45;&gt;and -->
<g id="edge44" class="edge">
<title>de&#45;&gt;and</title>
<path fill="none" stroke="black" d="M1736.19,-576.34C1744.65,-555.96 1761.85,-521.95 1788,-504 1852.5,-459.73 1946.85,-451.34 1998.94,-450.38"/>
<polygon fill="black" stroke="black" points="1998.72,-453.87 2008.69,-450.28 1998.66,-446.87 1998.72,-453.87"/>
</g>
<!-- de&#45;&gt;a -->
<g id="edge45" class="edge">
<title>de&#45;&gt;a</title>
<path fill="none" stroke="black" d="M1703.32,-589.86C1616.18,-578.91 1340.69,-542.35 1240.11,-528.44"/>
<polygon fill="black" stroke="black" points="1240.67,-524.84 1230.28,-526.93 1239.7,-531.78 1240.67,-524.84"/>
</g>
<!-- de&#45;&gt;de -->
<g id="edge48" class="edge">
<title>de&#45;&gt;de</title>
<path fill="none" stroke="black" d="M1749.9,-606.43C1762.69,-609.68 1775,-605.53 1775,-594 1775,-585.89 1768.91,-581.44 1760.85,-580.63"/>
<polygon fill="black" stroke="black" points="1760.56,-577.23 1750.9,-581.57 1761.16,-584.2 1760.56,-577.23"/>
</g>
</g>
</svg>
